<?xml version="1.0" encoding="UTF-8"?>
<svg enable-background="new 0 0 720 720" version="1.1" viewBox="0 0 720 720" xml:space="preserve" xmlns="http://www.w3.org/2000/svg" xmlns:cc="http://creativecommons.org/ns#" xmlns:dc="http://purl.org/dc/elements/1.1/" xmlns:rdf="http://www.w3.org/1999/02/22-rdf-syntax-ns#"><metadata><rdf:RDF><cc:Work rdf:about=""><dc:format>image/svg+xml</dc:format><dc:type rdf:resource="http://purl.org/dc/dcmitype/StillImage"/><dc:title/></cc:Work></rdf:RDF></metadata>
	<style type="text/css">
	.st0{fill:#FEFE00;}
	.st1{fill:#7C4900;}
	.st2{fill:#FFFFFF;}
	.st3{fill:#EC1C24;}
	.st4{fill:#AA9F00;}
	.st5{fill:#01BDF0;}
	.st6{fill:#060604;}
</style>
	<path class="st0" d="m254.42 377.59c-0.23-4.35-0.17-8.59 0.07-12.84 0.36-6.35-1.7-12.07-5.05-17.36-1.88-2.97-3.91-5.84-5.85-8.77-3.31-5.03-5.79-10.42-6.96-16.36-0.82-4.17-1.25-8.4-1.58-12.63-0.4-5.13-0.76-10.27-1.72-15.33-1.72-9.08-5.88-17-12.09-23.72-5.56-6.01-8.09-13.04-8.85-21.01-0.59-6.25-1.37-12.49-2.75-18.65-1.34-5.99-3.78-11.45-7.24-16.49-3.24-4.72-6.77-9.23-10.18-13.82-2.54-3.41-4.98-6.89-7.08-10.59-3.72-6.54-5.75-13.46-5.23-21.08 0.5-7.3-2.11-13.62-6.63-19.23-3.76-4.67-8.22-8.64-12.69-12.61-1.95-1.74-3.97-3.41-5.63-5.45-3.87-4.74-5.95-10.29-7.25-16.17-0.6-2.71-1.1-5.45-1.42-8.2-0.75-6.34-3.5-11.69-7.84-16.26-2.03-2.13-4.19-4.14-6.31-6.18-6.38-6.13-11.68-13-14.74-21.42-1.24-3.4-2.06-6.89-2-10.53 0.05-3.16 0.73-3.95 3.65-5 5.94-2.14 12-2.57 18.06-0.85 12.53 3.56 24.78 2.03 36.87-1.88 4.85-1.56 9.6-1.71 14.46-0.45 2.85 0.73 5.72 1.4 8.51 2.31 8.48 2.78 16.99 2.89 25.59 0.6 5.37-1.43 10.79-2.63 16.29-3.4 6.32-0.88 12.54-0.63 18.63 1.45 4.48 1.53 8.98 3.01 13.67 3.81 5.36 0.92 10.73 0.95 16.13 0.55 10.78-0.8 21.31-3.17 31.95-4.88 10.58-1.7 21.01-1.25 31.25 2 4.91 1.56 9.89 2.82 15 3.54 6.51 0.92 12.87-0.09 19.17-1.61 6.59-1.58 13.06-3.62 19.72-4.91 8.31-1.61 16.39-1.13 24.22 2.39 8.13 3.65 16.79 4.66 25.61 4.62 9.27-0.04 18.39-1.43 27.47-3.15 6.63-1.26 13.28-1.8 19.94-0.22 0.95 0.23 1.9 0.47 2.83 0.77 10.11 3.28 15.45 10.13 16.18 20.72 0.36 5.24 0.12 10.46-0.67 15.65-0.63 4.1 0.33 7.79 2.59 11.17 1.32 1.97 2.8 3.82 4.17 5.76 5.69 8.05 10.49 16.54 13.2 26.11 1.45 5.12 1.76 10.32 1.34 15.55-0.64 7.96 1.02 15.42 4.22 22.64 2.32 5.23 5.12 10.22 7.77 15.29 3.08 5.87 5.95 11.82 7.36 18.36 1.13 5.27 1.45 10.62 0.02 15.8-3.16 11.51-2.14 22.81 0.9 34.11 2.02 7.51 4.72 14.79 7.85 21.89 4.22 9.57 4.98 19.51 3.93 29.76-0.86 8.36-2.36 16.67-2.23 25.13 0.1 6.66 1.38 13.08 4.8 18.78 3.44 5.74 3.7 11.71 2.61 17.97-0.32 1.84-1.01 3.62-1.4 5.45-1.15 5.37-0.31 10.55 1.69 15.6 0.84 2.12 1.73 4.24 2.42 6.41 0.96 2.97 1.48 5.98 0.97 9.16-0.83 5.13-3.74 8.4-8.53 10.1-4.52 1.6-9.14 1.57-13.79 0.71-5.74-1.07-11.3-2.77-16.44-5.51-6.04-3.21-12.28-3.54-18.81-2.35-4.5 0.82-8.95 1.89-13.39 2.98-8.05 1.97-16.01 1.77-23.97-0.47-4.64-1.3-9.28-2.6-14.15-2.79-3.13-0.12-6.18 0.16-9.22 0.95-9.66 2.54-19.52 2.97-29.44 2.6-9.16-0.34-18.2-1.74-27.23-3.22-8.22-1.35-16.39-3.06-24.73-3.47-8.63-0.42-17.18 0.15-25.42 2.94-6.49 2.2-13.08 2.58-19.83 1.97-6.6-0.6-13.1-1.82-19.62-2.89-8.49-1.39-16.75-0.81-24.9 1.92-5.73 1.92-11.44 3.92-17.42 4.94-2.6 0.44-5.22 0.58-7.8 0-4.99-1.13-8.35-4.27-10.44-8.85-1.85-4.08-2.57-8.42-2.8-12.85-0.16-3.07-0.1-6.1 0.21-9.01zm3.46-165.34c2.02 5.24 4.85 9.66 7.32 14.26 0.7 1.3 1.42 2.57 2.14 3.86 10.34 18.56 20.31 37.32 31.3 55.51 11.69 19.35 24.5 37.89 39.85 54.57 8.21 8.92 16.86 17.37 26.85 24.33 15.24 10.62 32.06 16.74 50.68 17.67 7.04 0.35 14.06-0.04 21.03-1.06 7.97-1.17 15.67-3.27 22.83-7.05 16.14-8.52 27.46-21.45 34.19-38.31 6.45-16.15 10.4-33 13.19-50.12 3.04-18.64 4.55-37.45 5.94-56.27 0.53-7.17 1.06-14.34 1.6-21.51 0.11-1.38 0.23-2.77 0.45-4.14 0.22-1.35 0.7-1.63 2.03-1.28 1.82 0.48 3.55 1.23 5.25 2.03 1.91 0.9 3.8 1.84 5.77 2.8 0.6-2.07-0.01-3.65-1.48-4.92-2.59-2.26-5.28-4.39-8.32-6.04-3.57-1.94-7.39-2.52-11.39-2-0.97 0.13-1.93 0.35-2.8 0.82-0.59 0.32-1.18 0.75-1.19 1.45-0.01 0.76 0.67 1.04 1.31 1.26 1.24 0.42 2.48 0.83 3.7 1.3 2.69 1.04 2.77 1.32 1.05 3.51-2.79 3.55-5.98 6.73-9.49 9.55-20.16 16.18-43.24 26.1-68.31 31.63-10.66 2.35-21.53 2.82-32.41 2.99-12.04 0.18-24.02-0.53-35.94-2.16-11.98-1.65-23.79-4.24-35.5-7.23-15.14-3.86-29.95-8.7-44.19-15.17-6.5-2.95-12.67-6.46-18.08-11.18-0.64-0.56-1.43-1.02-1.79-2.02 2.53-1.38 4.97-2.69 7.39-4.05 1.06-0.6 2.1-1.28 3.07-2.01 0.52-0.39 0.9-1 0.54-1.72-0.3-0.6-0.86-0.7-1.47-0.64-1.46 0.16-2.93 0.27-4.38 0.52-6.19 1.06-11.67 3.66-16.41 7.76-2.34 2.03-3.79 4.59-3.94 7.8 1.01 0.19 1.75-0.25 2.5-0.49 2.58-0.86 4.74-2.5 7.11-4.25zm268.56 2.56c0.72 1.65 0.71 1.65 1.66 2.22 3.6 2.15 7.23 1.72 10.76-0.1 6.22-3.21 10.32-8.34 12.11-15.02 2.6-9.68 1.26-19.03-4.83-27.03-7.65-10.05-17.79-15.95-30.85-15.83-1.62 0.01-1.79-0.11-1.46-1.6 0.36-1.61 0.45-3.24 0.62-4.86 1.14-10.99-5.58-20.79-16.43-22.61-3.66-0.61-7.33-0.41-10.93 0.59-0.86 0.24-1.73 0.48-2.59 0.73-0.68 0.19-1.1-0.03-1.26-0.74-0.09-0.4-0.24-0.78-0.35-1.17-5.12-17.62-14.67-32.32-28.88-43.96-4.12-3.38-8.57-6.27-13.23-8.84-1.69-0.93-1.68-0.97-1.15-2.85 0.88-3.14 1.77-6.29 2.68-9.42 1.15-4 1.01-4.28-2.99-5.52-3.77-1.17-4.59-0.8-5.54 3.06-0.78 3.17-1.38 6.38-1.9 9.61-0.31 1.93-0.82 1.72-2.07 1.33-3.76-1.18-7.62-1.81-11.53-2.19-2.19-0.21-2.19-0.25-2.67-2.34-1.01-4.37-2.02-8.75-3.03-13.12-0.87-3.78-1.88-4.39-5.72-3.47-0.16 0.04-0.33 0.04-0.48 0.09-2.04 0.58-2.72 1.41-2.67 3.5 0.02 1.06 0.15 2.12 0.36 3.16 0.67 3.36 1.41 6.71 2.11 10.07 0.41 1.98 0.36 2.09-1.59 2.33-3.35 0.41-6.55 1.35-9.68 2.56-3.2 1.24-3.21 1.25-4.25-2.09-0.85-2.73-1.81-5.43-3.07-8-1.8-3.66-3.8-4.17-7.28-1.97-2.39 1.51-2.55 2.09-1.13 4.5 2.04 3.46 3.65 7.12 5.23 10.8 0.52 1.2 0.3 1.91-0.79 2.65-10.15 6.87-16.61 16.47-20.56 27.92-0.17 0.5-0.19 1.1-0.76 1.38-0.16-0.12-0.33-0.19-0.41-0.31-8.28-11.58-18.73-20.67-31.31-27.32-1-0.53-1.42-1.13-1.34-2.29 0.32-4.41 0.14-8.83 0.06-13.24-0.01-0.74 0.02-1.48-0.12-2.2-0.33-1.78-1.8-2.64-4.17-2.53-1.8 0.09-2.52 0.82-2.57 2.86-0.07 3.11-0.05 6.21-0.05 9.32 0 1.38 0.15 2.77-0.08 4.14-0.22 0.03-0.39 0.11-0.53 0.06-5.28-1.8-10.68-3.03-16.24-3.53-1.07-0.1-1.31-0.62-1.51-1.5-0.83-3.49-1.71-6.98-2.59-10.46-0.93-3.64-1.42-3.96-5.1-3.42-0.24 0.04-0.49 0.06-0.73 0.12-1.44 0.37-1.93 0.93-1.78 2.45 0.16 1.62 0.52 3.22 0.76 4.84 0.41 2.73 1.16 5.38 1.81 8-0.32 0.17-0.45 0.3-0.6 0.32-5.01 0.73-9.99 1.62-14.81 3.27-1.59 0.54-2.02 0.29-2.89-1.39-1.66-3.19-3.25-6.41-4.88-9.61-1.34-2.62-2.25-3-5.1-2.12-1.84 0.56-2.57 1.64-2.16 3.51 0.24 1.1 0.7 2.17 1.16 3.21 1.33 2.99 3.08 5.76 4.68 8.61 1.08 1.93 1.07 1.93-0.86 3.14-0.48 0.3-0.97 0.6-1.45 0.91-8.09 5.25-14.19 12.24-18.27 20.98-3.18 6.82-4.77 14.06-5.34 21.52-1.09 14.28 1.07 28.02 7.09 41.09 0.26 0.56 0.77 1.1 0.48 1.89-5.8 0.73-11.22 2.63-16.24 5.7-8.69 5.3-15.59 12.38-20.79 21.1-3.74 6.26-5.64 13.01-5.03 20.36 0.47 5.61 2.46 10.51 6.92 14.11 5.05 4.08 10.95 5.7 17.39 5.4 4.52-0.21 8.86-1.4 13.13-2.84 0.61-0.21 1.22-0.47 1.79-0.78 0.66-0.36 0.84-0.98 0.65-1.68-0.18-0.64-0.67-0.89-1.3-0.89-0.41 0-0.82 0.04-1.23 0.03-4.57-0.07-9.15 0.12-13.71-0.45-8.74-1.09-15.62-8.2-16.38-16.94-0.37-4.24 0.98-8.06 2.58-11.84 6.37-15.08 23.14-30 46.38-26.78 9.63 1.34 16.97 12.06 14.43 21.18-0.5 1.8-1.35 3.5-2.09 5.23-0.62 1.46-0.99 2.94-0.8 4.53 0.08 0.68 0.28 1.3 1.03 1.5 0.74 0.2 1.2-0.2 1.65-0.76 1.03-1.29 1.06-1.28 2.56-0.34 6.06 3.79 12.51 6.72 19.37 8.74 8.63 2.55 17.41 3.76 26.39 2.53 11.8-1.62 21.92-6.8 30.57-14.9 6.85-6.42 11.41-14.23 13.83-23.3 0.29-1.1 0.35-2.39 1.53-3.27 7.58 11.04 17.7 19.03 29.27 25.63-5.41 4.5-11.84 7.11-16.84 11.78 0.54 0.46 1.05 0.44 1.53 0.45 2.53 0.08 4.83-0.68 6.98-1.97 4.77-2.85 9.56-5.66 14.3-8.57 10.42-6.4 19.99-13.89 28.91-22.25 7.23-6.78 13.69-14.28 20.28-21.66 4.58-5.13 9.32-10.09 14.87-14.21 4.59-3.41 9.6-5.89 15.27-6.9 7.24-1.3 13.6 2.36 15.65 9.05 0.88 2.87 0.92 5.79 0.26 8.72-2.22 9.77-7.53 17.65-14.89 24.25-15.43 13.82-32.87 24.44-51.96 32.42-10.55 4.41-21.3 8.29-32.03 12.25-0.76 0.28-1.53 0.58-2.24 0.96-0.55 0.3-0.76 0.85-0.57 1.48 0.18 0.57 0.66 0.68 1.17 0.65 1.71-0.1 3.44-0.1 5.13-0.35 10.7-1.58 21.12-4.28 31.23-8.1 15.2-5.74 29.45-13.34 43-22.27 1.53-1.01 1.54-1.02 2.71 0.26 1.73 1.9 3.76 3.4 6.01 4.59 1.3 0.68 2.23 0.52 2.83-0.36 0.76-1.11 0.02-1.78-0.73-2.49-1.49-1.4-2.93-2.86-3.93-4.68-0.93-1.68-0.93-1.82 0.55-3.05 4.55-3.79 8.55-8.09 11.84-13.02 2.41-3.61 4.57-7.36 6.37-11.31 0.65-1.43 1.49-1.83 2.99-1.84 11.64-0.11 20.43 5.39 27.7 13.92 0.68 0.8 1.19 1.76 1.66 2.71 4.29 8.75 3.81 17.4-0.87 25.81-2.39 4.31-6.25 6.78-11.05 7.85-1.61 0.33-3.26 0.19-5.04 0.52zm-95.09 187.93c7.63-0.04 16.83-1.17 25.77-4.09 11.67-3.8 21.63-10.29 30.15-19.06 1.26-1.3 2.29-2.77 3.05-4.42 0.23-0.5 0.27-0.95-0.15-1.34-0.42-0.38-0.9-0.3-1.35-0.03-0.28 0.17-0.54 0.37-0.81 0.55-7.11 4.39-14.57 8.06-22.46 10.85-9.18 3.26-18.51 5.86-28.26 6.78-5.89 0.55-11.75 0.39-17.62-0.11-8.16-0.69-16.19-2.01-24.06-4.3-7.93-2.32-15.66-5.15-23.19-8.53-1.71-0.77-3.49-1.37-5.25-2.03-0.59-0.22-1.15-0.13-1.49 0.45-0.33 0.56-0.2 1.11 0.26 1.55 0.23 0.23 0.5 0.41 0.76 0.62 3.28 2.7 6.59 5.37 10.07 7.82 4.82 3.41 9.9 6.32 15.48 8.35 12.06 4.41 24.48 6.88 39.1 6.94zm-223.18-306.07c-0.13-1.34-0.11-2.89-0.47-4.42-2.22-9.43-6.9-17.41-14.19-23.81-3.33-2.93-6.96-5.44-11.1-7.1-7.62-3.05-15.8 0.44-18.32 7.75-0.88 2.54-1 5.14-0.49 7.74 1.54 7.96 5.33 14.85 10.29 21.16 5.42 6.89 12.74 10.6 21.1 12.43 5.33 1.16 9.96-1.52 12.01-6.58 0.9-2.24 1.18-4.58 1.17-7.17zm110.87 269.03c-0.04-2.29-0.15-4.56-0.64-6.81-1.65-7.65-5.86-13.38-12.84-16.97-5.36-2.75-10.79-1.84-15.04 2.42-2.73 2.74-4.49 6.02-5.03 9.87-1.04 7.48 0.16 14.64 3.46 21.42 1.95 3.99 4.9 7.11 8.77 9.31 6.17 3.51 12.48 2.16 16.63-3.58 3.38-4.67 4.83-9.93 4.69-15.66zm244.13-43.32c0.03-2.6-1.05-7.5-2.29-10.13-3.77-7.96-14.03-10.37-20.4-4.48-6.99 6.47-10.33 14.45-9.08 24.21 1.25 9.79 12.12 15.68 21.09 10.16 7.37-4.53 10.48-11.1 10.68-19.76zm-280.05-0.42c0-0.65 0.04-1.31-0.01-1.96-0.45-6.34-3.04-11.44-8.62-14.81-1.28-0.77-2.62-1.28-4.15-1.3-4.41-0.07-7.47 2.17-9.52 5.8-3.81 6.75-3.79 13.73-0.6 20.68 1.43 3.11 3.79 5.51 6.87 7.09 4.13 2.12 8.44 1.32 11.57-2.1 1.06-1.15 1.87-2.47 2.52-3.89 1.38-3.02 1.94-6.21 1.94-9.51zm-65.9-173.86c-0.01-0.12 0.01-0.53-0.05-0.93-1.12-7.54-4.56-13.87-10.07-19.09-1.37-1.3-2.99-2.26-4.69-3.08-0.89-0.43-1.81-0.7-2.82-0.72-3.99-0.11-7.63 3.67-7.85 8.12-0.42 8.36 3.21 14.79 9.48 19.95 2.12 1.74 4.61 2.78 7.29 3.29 5.02 0.96 8.75-2.17 8.71-7.54zm287.58-67.43c0.09-1-0.15-2.29-0.4-3.56-0.91-4.45-3.07-8.27-6.27-11.42-3.47-3.41-7.84-2.58-10.1 1.74-0.57 1.09-1.03 2.25-1.21 3.45-0.92 6.32 0.63 11.97 4.75 16.88 0.9 1.07 2.03 1.89 3.29 2.5 3.8 1.83 7.46 0.42 8.98-3.51 0.7-1.84 0.93-3.79 0.96-6.08zm57.97 291.85c0.13-1.49-0.04-3.11-0.49-4.69-0.7-2.51-2.37-4.03-4.93-4.55-2.32-0.47-4.4 0.15-6.22 1.55-4.13 3.17-5.96 7.43-5.7 12.61 0.11 2.19 0.94 4.13 2.21 5.88 1.78 2.45 3.95 3.2 6.87 2.41 2.38-0.64 4.28-1.97 5.68-4.01 1.87-2.73 2.67-5.76 2.58-9.2zm-318.57-183.96c0.05-2.7-2.23-4.38-4.71-3.66-2.11 0.62-3.61 2.13-5.09 3.67-0.92 0.96-1.36 2.09-0.83 3.34 0.57 1.37 1.67 2.15 3.21 2.26 2.38 0.16 6.23-2.21 7.1-4.43 0.17-0.44 0.25-0.93 0.32-1.18zm12.27 11.11c2-0.09 3.45-1.15 4.75-2.4 0.92-0.88 1.42-1.98 0.97-3.31-0.46-1.34-1.35-2.17-2.76-2.47-2.14-0.45-4.55 0.56-5.92 2.55-0.82 1.2-1.31 2.46-0.5 3.87 0.78 1.35 2.11 1.68 3.46 1.76zm259.41-21.93c0.24-0.06 0.88-0.16 1.5-0.36 1.41-0.45 2.49-1.27 2.61-2.87 0.12-1.61-0.57-2.83-1.97-3.64-0.64-0.37-1.32-0.64-2.05-0.74-2.51-0.34-4.76 1.07-5.06 3.15-0.28 2 1.91 4.27 4.32 4.45 0.08 0.01 0.17 0.01 0.65 0.01zm-249.87 7.05c0.18-0.01 0.93 0.03 1.64-0.12 1.59-0.33 2.92-1.71 3.11-3.09 0.19-1.41-0.72-2.96-2.25-3.75-1.69-0.87-3.3-0.63-4.86 0.36-1.94 1.24-2.74 2.78-2.28 4.42 0.49 1.71 1.36 2.18 4.64 2.18zm253.75-1.91c-2.5-0.07-3.88 1.43-3.63 3.71 0.13 1.18 0.64 2.19 1.42 3.05 1.12 1.23 2.49 1.96 4.15 1.31 1.57-0.61 2.91-1.7 3.2-3.43 0.31-1.8-1.04-2.8-2.37-3.67-0.89-0.59-1.91-0.88-2.77-0.97zm20.36 1.62c0.02-0.6-0.21-1.13-0.5-1.62-1.27-2.11-5.59-2.81-7.46-1.24-0.61 0.52-0.92 1.16-0.77 1.94 0.33 1.73 1.03 3.25 2.54 4.3 1.28 0.88 2.59 0.91 3.91 0.15 1.36-0.77 2.14-1.96 2.28-3.53zm-430.42-121.66c0.3 1.12 0.48 1.74 0.63 2.38 1.32 5.62 4.04 10.47 7.93 14.72 3.32 3.62 6.93 6.94 10.43 10.38 1.86 1.83 3.71 3.69 5.44 5.65 4.83 5.48 7.34 11.91 7.53 19.21 0.06 2.22 0.36 4.4 0.64 6.58 0.47 3.58 1.94 6.71 4.17 9.53 4.79 6.05 9.93 11.83 16.2 16.31 7.12 5.08 10.02 11.98 10.41 20.33 0.17 3.67 0.33 7.35 0.5 11.02 0.32 7.1 2.95 13.35 7.2 18.94 2.32 3.06 4.84 5.97 7.29 8.93 3.44 4.16 6.84 8.35 9.85 12.83 4.12 6.12 6.94 12.75 7.89 20.11 0.28 2.11 0.27 4.24 0.32 6.36 0.14 5.49 0.78 10.9 2.25 16.22 1.29 4.65 3.43 8.82 6.54 12.49 1.85 2.18 3.76 4.31 5.6 6.5 4.15 4.95 7.36 10.39 8.75 16.78 0.56 2.57 0.78 5.15 0.56 7.79-0.33 3.91-0.59 7.82-0.75 11.74-0.24 6.07 1.37 11.62 4.86 16.63 2.71 3.89 5.36 7.82 7.99 11.77 2.31 3.47 4.4 7.07 5.9 10.99 2.01 5.26 2.45 10.61 1.22 16.12-2.03 9.1-1.14 18.02 1.71 26.81 0.63 1.95 1.56 3.77 2.6 5.54 0.32 0.55 0.84 1.02 0.74 1.93-9.25 3.54-15.14 10.95-20.68 18.73-0.81 1.13-1.58 2.28-2.37 3.43-1.52 2.23-3.09 4.42-4.55 6.69-1.78 2.77-4.21 4.73-7.15 6.16-2.58 1.25-5.21 2.37-7.91 3.3-3.14 1.08-5.58 2.91-7.32 5.79-2 3.3-4.73 6.04-7.33 8.87-0.89 0.97-1.35 0.9-2.16-0.13-0.98-1.24-1.46-2.72-1.92-4.21-1.58-5.17-2.24-10.53-3.3-15.81-2.12-10.63-6.05-20.48-12.47-29.3-4.77-6.55-9.12-13.36-12.33-20.84-2.61-6.07-4.07-12.4-4.16-19.02-0.04-2.48-0.66-4.84-1.38-7.19-2.37-7.69-5.74-14.94-9.74-21.9-2.56-4.46-5.24-8.86-7.86-13.29-0.75-1.26-1.56-2.48-2.13-4.05 10.63-2.56 21.34-4.51 31.06-9.95 1.08 5.81 2.56 11.21 4.75 16.4 2.28 5.39 5.37 10.27 9.29 14.62 3.6 3.98 8.09 5.98 13.4 6.22 3.79 0.18 7.05-1.08 9.74-3.79 5.16-5.21 8.24-11.52 9.71-18.64 0.99-4.82 1.41-9.71 1.48-14.61 0.12-8.89-2.76-17.02-6.69-24.82-1.88-3.73-4.12-7.25-6.96-10.34-3.33-3.62-7.17-6.51-12.18-7.26-6.62-0.99-12.05 1.17-16.12 6.55-0.29 0.39-0.56 0.8-0.92 1.32-1.19-0.29-2.2-0.97-3.21-1.6-3.39-2.13-6.74-4.32-10.12-6.47-3.03-1.93-6.08-3.86-9.36-5.34-1.13-0.51-1.55-1.1-1.53-2.38 0.06-3.93-0.17-7.85-1.09-11.69-1.3-5.38-3.75-10.09-8.17-13.6-0.57-0.46-1.19-0.87-1.82-1.24-5.03-2.95-9.9-1.58-12.55 3.64-1.83 3.6-2.82 7.47-3.42 11.45-0.07 0.48-0.12 0.96-0.2 1.57-2.83-0.34-5.57-0.57-8.3-0.04-3.5 0.68-6.67 2.13-9.66 4.04-1.57 1-1.65 1.01-2.64-0.44-4.07-5.93-8.12-11.87-12.12-17.85-1.47-2.19-2.18-4.74-2.92-7.24-1.16-3.91-2.29-7.84-3.52-11.73-1.64-5.18-4.86-9.21-9.33-12.25-1.69-1.15-3.43-2.22-5.21-3.23-7.63-4.35-12.81-10.8-16.05-18.86-1.88-4.68-1.65-9.44 0-14.15 1.38-3.96 3.28-7.69 5.76-11.05 6.43-8.71 10.28-18.51 12.58-29 1.9-8.69 5.88-16.21 12.27-22.46 4.74-4.63 8.02-10.29 10.82-16.24 3.48-7.4 6.13-15.14 9.35-22.64 1.2-2.85 2.41-5.69 4.24-8.72zm-12.6 97.67c0.17 5.64 1.72 12.69 5 19.3 3.72 7.48 9.32 13.17 16.77 16.93 8.98 4.54 17.84 2.49 23.99-5.45 4.32-5.57 6.36-11.97 6.15-18.95-0.33-10.7-3.94-20.27-10.66-28.61-2.9-3.6-6.47-6.45-10.51-8.69-3.43-1.9-7.1-2.96-11.04-2.53-7.92 0.86-13.39 5.2-16.76 12.28-2.1 4.4-2.99 9.11-2.94 15.72zm116.84 242.29c0-0.9 0.05-1.8-0.01-2.69-0.34-5-1.85-9.6-4.94-13.6-1.39-1.79-3.06-3.17-5.37-3.6-3.93-0.73-7.46 1.03-9.3 4.77-1.86 3.78-2.24 7.78-1.59 11.94 0.85 5.36 2.65 10.27 6.54 14.21 4.74 4.8 11.41 3.28 13.61-3.08 0.9-2.58 1.32-5.22 1.06-7.95zm-132.52-33.27c-0.51 2.31-1.03 4.62-1.54 6.93-0.11 0.49-0.24 0.99-0.8 1.11-0.7 0.14-1.01-0.32-1.26-0.89-0.94-2.13-1.57-4.34-1.22-6.66 0.84-5.5 2.18-10.89 4.36-16.03 0.39-0.91 0.88-1.75 1.67-2.39 0.93-0.75 1.97-0.73 3.01-0.31 1 0.41 1.11 1.27 1.14 2.23 0.04 1.44-0.49 2.72-0.99 4.01-1.51 3.91-1.52 3.9 1.63 6.62 2.36 2.04 2.61 2.01 4.27-0.76 0.37-0.63 0.69-1.3 0.93-1.99 0.89-2.64 0.54-5.15-0.88-7.53-4.02-6.78-10.39-9.59-17.83-10.67-5.66-0.82-11.25 0.02-16.85 0.67-3.76 0.44-4.4 0.1-5.37-3.5-0.11-0.39-0.18-0.8-0.26-1.2-0.98-4.9-0.31-9.77 0.3-14.64 0.85-6.81 2.37-13.51 3.75-20.22 0.94-4.57 2.25-9.03 4.21-13.28 1.6-3.47 4.21-5.44 8.09-5.9 4.03-0.47 8.03-0.18 11.98 0.37 8.17 1.13 16.27 2.68 24.3 4.57 5.01 1.18 9.98 2.47 14.92 3.92 1.84 0.54 1.99 0.45 2.88-1.23 1.09-2.04 1.77-4.2 1.95-6.53 0.21-2.77-0.11-3.24-2.86-3.82-4.39-0.93-8.77-1.91-13.18-2.79-10.24-2.04-20.36-4.81-30.79-5.85-6.37-0.64-12.74-0.49-19.04 0.78-2.52 0.51-4.54 1.8-5.76 4.16-1.73 3.34-3.42 6.68-4.67 10.24-2.54 7.25-4.56 14.65-6.45 22.09-2.4 9.47-4.05 18.99-3.44 28.83 0.26 4.28-1.05 8.23-3.54 11.75-2.12 3.01-4.28 5.98-6.36 9.02-4.39 6.41-4.72 13.21-1.88 20.3 0.89 2.22 2.46 3.63 4.87 3.99 1.38 0.21 1.61 0.06 1.6-1.32-0.04-4.62 1.82-8.56 4.21-12.34 0.36-0.57 0.71-1.19 1.51-0.99 0.91 0.22 1.32 0.9 1.3 1.83-0.02 0.74-0.08 1.47-0.05 2.21 0.29 7.82 3.99 12.8 11.6 14.64 1.19 0.29 2.4 0.52 3.61 0.69 3.07 0.45 3.43 0.02 2.47-2.87-0.9-2.71-1.93-5.39-2.34-8.23-0.27-1.88-0.32-3.76 0.57-5.52 0.41-0.81 0.95-1.76 1.92-1.66 0.95 0.09 0.99 1.19 1.16 1.96 0.74 3.41 2.41 6.36 4.26 9.29 3.9 6.16 15.45 7.06 20.63-0.54 2.81-4.11 2.16-11.18-1.11-13.79-0.5 0.27-0.52 0.77-0.63 1.24zm556.5-37.58c-0.35 4.33 0.65 8.3 3.6 11.6 2.61 2.91 5.77 3.58 9.32 2.05 2.2-0.95 4.16-2.26 5.89-3.92 3.26-3.15 5.26-7.04 6.57-11.32 0.31-1.01 0.59-2.04 0.9-3.05 0.21-0.68 0.66-1.18 1.41-1.11 0.62 0.05 0.99 0.5 1.18 1.1 0.63 1.96 1.11 3.91 0.8 6.01-0.62 4.09-2.57 7.53-4.94 10.81-1.72 2.38-1.47 2.99 1.41 3.58 0.48 0.1 0.96 0.21 1.45 0.24 4.9 0.3 9.59-0.36 13.01-4.27 2.93-3.36 4.9-7.34 5.81-11.75 0.37-1.76 0.36-3.57 0.32-5.38-0.02-0.96 0.39-1.78 1.48-1.96 1.14-0.19 1.63 0.49 1.84 1.49 0.14 0.64 0.33 1.26 0.47 1.9 0.64 2.9-0.04 5.68-0.74 8.46-0.53 2.1-1.33 4.15-1.68 6.61 3.24-1.27 5.2-3.5 6.66-6.19 2.02-3.74 3.06-7.83 2.86-12.04-0.49-10.42-4.67-18.92-13.74-24.61-0.97-0.61-1.94-1.26-2.99-1.68-2.17-0.88-2.83-2.43-2.63-4.67 0.25-2.77 0.34-5.55 0.41-8.33 0.28-12.27 0.27-24.53-1.94-36.66-0.6-3.3-1.45-6.52-2.8-9.62-1.03-2.37-2.67-3.77-5.32-4.11-1.88-0.24-3.74-0.4-5.62-0.32-8.79 0.37-17.33 2.09-25.65 4.96-4.71 1.62-9.36 3.41-13.92 5.42-2.3 1.01-2.9 0.87-0.97 3.28 0.91 1.14 1.64 2.44 2.4 3.69 0.71 1.18 1.08 2.98 2.09 3.46 1.21 0.57 2.68-0.74 4.03-1.26 8.61-3.27 17.56-5.07 26.64-6.29 2.27-0.31 4.57-0.32 6.85 0 1.09 0.16 1.23 0.53 0.57 1.43-0.89 1.22-2.08 2.09-3.48 2.61-1.13 0.42-1.22 0.98-0.72 2.04 1.56 3.26 2.42 6.75 3.22 10.26 0.74 3.27 1.28 6.58 1.65 9.9 0.72 6.42 1.25 12.86 0.67 19.33-0.09 1.05-0.26 2.12-0.56 3.12-0.28 0.92-1.04 1.49-2.03 1.51-0.87 0.01-1.23-0.67-1.52-1.38-0.16-0.38-0.34-0.74-0.54-1.1-0.9-1.6-1.35-1.81-3.18-1.29-1.65 0.47-3.25 1.08-4.9 1.56-8.93 2.63-11.87 11.64-11.3 19.02 1.02-0.54 1.99-1.13 3.02-1.56 1.82-0.75 1.84-0.7 1.47-2.69-0.12-0.64-0.33-1.27-0.39-1.92-0.09-0.97-0.13-1.96-0.09-2.93 0.03-0.79 0.43-1.41 1.29-1.57 0.79-0.15 1.48 0.06 1.94 0.74 0.32 0.47 0.55 1 0.8 1.51 1.31 2.75 2.19 5.64 2.61 8.65 0.84 5.94-0.35 11.54-3.11 16.83-0.32 0.62-0.66 1.21-1.46 0.97-0.75-0.23-0.88-0.91-0.8-1.61 0.09-0.73 0.23-1.45 0.36-2.18 0.63-3.47 1.08-6.94 0.12-10.77-4.8 3.46-7.65 7.73-8.1 13.4zm-10.68 129.6c1.15 0.05 1.37-0.49 1.34-1.46-0.07-2.94 0.04-5.89-0.17-8.82-0.23-3.25-0.64-6.5-1.62-9.64-0.75-2.38-2.22-3.86-4.77-4.37-2.58-0.52-5.05-0.15-7.51 0.47-9.86 2.53-19.17 6.48-28.19 11.11-16.76 8.61-31.65 19.89-45.6 32.45-0.24 0.22-0.48 0.44-0.71 0.67-0.55 0.55-0.59 1.14-0.08 1.74 1.3 1.56 2.61 3.11 3.88 4.63 0.95-0.31 1.43-1.01 2.01-1.57 4.78-4.59 9.87-8.82 15.3-12.64 12.59-8.86 26.37-15.32 40.79-20.54 2.07-0.75 4.19-1.44 5.97-2.78 1.05-0.79 1.88-0.64 2.79 0.25 1.88 1.82 3.06 4.02 3.66 6.53 0.61 2.53 0.83 5.13 1.19 8.31 3.49-3.49 7.41-4.54 11.72-4.34zm-394.51 195.12c-0.54 1.05-0.45 2.26-0.02 3.35 0.91 2.27 1.83 4.54 2.88 6.75 0.84 1.78 2 3.38 3.53 4.66 2.19 1.84 4.18 1.89 6.43 0.18 0.71-0.55 1.38-1.15 2.05-1.75 8.37-7.52 15.61-16.04 22.18-25.15 10.04-13.93 19-28.56 27.8-43.3 0.16-0.28 0.32-0.56 0.15-1.11-2.81-0.93-5.74-1.89-8.67-2.87-0.89-0.3-1.34 0.1-1.69 0.9-0.82 1.87-1.67 3.73-2.79 5.45-4.42 6.78-8.76 13.6-13.26 20.32-6.19 9.25-12.82 18.16-20.76 26.02-2.38 2.36-4.87 4.6-7.53 6.65-0.85 0.66-1.79 0.89-2.68 0.12-0.86-0.75-0.53-1.59-0.04-2.42 0.9-1.54 1.77-3.11 2.93-5.18-5.1 0.79-8.39 3.29-10.51 7.38z"/>
	<path class="st1" d="m216.58 557.11c2.68-1.99 5.36-3.98 8.04-5.98 17.93-13.39 35.87-26.77 53.78-40.18 1.32-0.99 2.71-1.4 4.32-1.4 4.01 0.01 8.01 0.02 12.02-0.03 12.83-0.14 25.66-0.29 38.49-0.62 9.15-0.23 18.31-0.01 27.45-0.43 10.38-0.48 20.76-0.08 31.13-0.53 10.63-0.46 21.25-0.05 31.87-0.45 10.95-0.41 21.91-0.09 32.85-0.53 8.83-0.36 17.65-0.25 26.47-0.41 0.98-0.02 1.95-0.06 2.93-0.22 1.31-0.21 1.64 0.24 1.21 1.53-0.31 0.93-0.7 1.83-1.15 2.7-1.59 3.08-1.99 6.36-1.72 9.76 0.15 1.86 1.13 3.42 2.08 4.92 3.72 5.88 9.39 8.88 15.94 10.51 0.41 0.1 0.77 0.08 1.18-0.05 7.29-2.35 14.58-4.7 21.88-7.02 8.02-2.54 16.01-5.16 23.83-8.28 6.88-2.75 13.25-6.34 18.92-11.13 1.39-1.17 2.44-2.64 3.56-4.04 0.62-0.78 1.25-1.16 2.26-1.13 2.2 0.06 4.41 0.02 6.71 0.02 0.07 1.1-0.78 1.46-1.35 1.94-5.13 4.3-10.28 8.58-15.45 12.84-7.82 6.43-15.65 12.86-23.51 19.24-4.69 3.81-9.16 7.88-13.66 11.91-1.4 1.25-2.83 1.74-4.65 1.7-3.35-0.07-6.71 0.01-10.06 0.03-11.61 0.05-23.21 0.41-34.81 0.67-9.64 0.22-19.29 0.02-28.92 0.41-8.25 0.34-16.51 0.12-24.75 0.53-7.93 0.39-15.85 0.1-23.77 0.44-9.89 0.42-19.78 0.16-29.66 0.56-5.47 0.22-10.94 0.18-16.41 0.33-0.49 0.01-0.98 0.03-1.47 0.01-1.57-0.08-1.7-0.18-1.42-1.72 0.57-3.21 1.2-6.41 1.81-9.61 0.24-1.28 0.5-2.56 0.71-3.85 0.11-0.67 0.02-1.36-0.67-1.7-0.73-0.37-1.26 0.13-1.68 0.63-0.78 0.94-1.5 1.91-2 3.06-5.37 12.53-10.78 25.05-16.18 37.57-1.75 4.05-3.68 8.03-5.23 12.15-0.72 1.9-1.93 2.52-3.65 2.64-1.38 0.1-2.78 0.11-4.17 0.01-8.66-0.6-17.19-1.86-25.27-5.25-6.59-2.76-12.92-5.96-17.91-11.27-1.24-1.31-2.28-2.77-3.39-4.18-0.83-1.06-0.7-1.81 0.23-2.72 2.87-2.8 5.45-5.86 8.03-8.92 5.51-6.53 10.02-13.71 13.66-21.43 0.38-0.81 0.69-1.66 0.76-2.57 0.06-0.67 0.02-1.34-0.65-1.73-0.74-0.43-1.23 0.07-1.71 0.52-3.51 3.31-6.96 6.69-10.16 10.3-2.49 2.81-4.92 5.68-7.33 8.56-0.91 1.09-1.98 1.54-3.41 1.51-13.49-0.28-26.97 0.65-40.45 0.45-4.67-0.07-9.3 0.53-13.96 0.43-0.46-0.01-0.93 0-1.39 0-0.06-0.16-0.1-0.33-0.15-0.5zm201.4-106.89c-28.36-0.31-56.73 0.12-85.1-0.37-19.45-0.34-38.91-0.3-58.35 0.3-2.34 0.07-2.28 0.04-1.9 2.38 1.37 8.61 2.78 17.21 4 25.83 1.11 7.91 2.5 15.77 4.07 23.59 0.43 2.15 0.5 2.22 2.74 2.19 5.14-0.07 10.28-0.13 15.43-0.31 11.59-0.42 23.2-0.01 34.81-0.51 10.45-0.45 20.91-0.04 31.37-0.48 11.26-0.47 22.55-0.04 33.82-0.5 11.35-0.46 22.71-0.06 34.07-0.48 13.39-0.49 26.8 0.09 40.2-0.52 4.73-0.21 9.49-0.19 14.22-0.03 2.2 0.08 3.44-0.73 4.52-2.53 4.57-7.64 9.55-15.02 14.98-22.09 5.03-6.55 10.19-13 16.38-18.51 3.11-2.77 6.38-5.35 10.79-5.86 2.89-0.34 5.71 0.1 8.5 0.61 4.47 0.83 8.56 2.63 12.18 5.44 1.66 1.29 1.71 1.23 3.41 0.19 2.02-1.24 4.08-2.42 6.05-3.72 2.01-1.32 4.23-2.32 6.12-3.87-0.38-0.43-0.72-0.33-1.02-0.34-12.18-0.13-24.35-0.11-36.53-0.3-20.27-0.32-40.56-0.09-60.83-0.13-1.89 0-3.74 0.16-5.6 0.43-1.22 0.18-1.48 0.61-1.04 1.83 0.48 1.32 1.4 2.39 2.09 3.6 0.68 1.2 1.58 1.64 2.99 1.55 5.79-0.34 11.59 0.13 17.39-0.43 3.57-0.34 7.17 0.07 10.76 0.29 2.27 0.14 2.46 0.25 2.5 2.59 0.06 3.26-0.14 6.53 0.33 9.79 0.14 0.96 0.08 1.96 0.04 2.94-0.07 1.76-0.59 2.25-2.41 2.35-0.49 0.03-0.98 0.01-1.47 0.01-8.26 0.02-16.52 0.06-24.78 0.03-1.41-0.01-2.51 0.34-3.45 1.43-2.91 3.42-6.12 6.58-9.15 9.9-3.91 4.3-8.17 8.22-12.6 11.97-3.66 3.1-7.44 3-11.12 0.01-4.89-3.97-9.38-8.38-13.54-13.12-2.75-3.13-5.44-6.3-7.93-9.65-0.87-1.17-1.96-1.66-3.39-1.47-1.05 0.14-2.1 0.35-3.15 0.37-8.74 0.2-17.48 0.36-26.22 0.52-2.62 0.05-5.23 0.09-7.85 0.05-1.64-0.03-2.22-0.58-2.38-2.17-0.37-3.73-0.76-7.46-1.02-11.2-0.18-2.58 0.4-3.23 3.04-3.24 6.05-0.01 12.08-0.41 18.12-0.51 7.28-0.13 14.55-0.08 21.83-0.09 1.35 0 2.69-0.03 3.52-1.26 1.32-1.95 2.34-4.06 3.44-6.54-1.15 0.04-2.01 0.05-2.88 0.04zm-64.53 9.35c3.14 0 3.57 0.51 3.79 3.7 0.15 2.27 0.51 4.52 0.74 6.79 0.12 1.22 0.16 2.44 0.25 3.66 0.09 1.24-0.62 1.8-1.74 1.91-0.73 0.07-1.47 0.04-2.2 0.05-15.28 0.04-30.56 0.03-45.84 0.15-3.83 0.03-7.66 0.41-11.49 0.34-2.83-0.06-3.36-0.59-3.61-3.41-0.3-3.24-0.62-6.48-1.04-9.71-0.42-3.2-0.22-3.49 3.06-3.49h29.17v0.01c9.62-0.01 19.27-0.01 28.91 0zm-109.92 14.18c-5.02 4.3-9.99 8.66-15.03 12.93-6.72 5.7-13.44 11.41-20.27 16.97-1.98 1.61-2.57 3.4-2.17 5.77 1.07 6.42 2.12 12.85 3.15 19.28 0.93 5.79 1.79 11.58 2.75 17.37 0.39 2.35 0.59 4.76 1.27 7.02 0.64-0.04 0.92-0.34 1.24-0.59l9.87-7.65c7.48-5.8 14.98-11.58 22.45-17.4 9.15-7.11 18.23-14.33 27.65-21.07 1.48-1.06 1.96-2.05 1.56-3.87-1.02-4.61-1.9-9.26-2.65-13.92-1.59-9.97-3.01-19.96-4.63-29.93-0.26-1.57-0.01-3.3-1.12-4.93-8.35 6.54-16.2 13.29-24.07 20.02zm-21.41 28.94c4.48-3.54 8.93-7.12 13.51-10.53 7.53-5.59 15.16-11.06 22.75-16.57 0.07-0.05 0.12-0.11 0.19-0.16 1.7-1.18 2.32-0.95 2.79 1.15 0.39 1.75 0.71 3.51 1.03 5.27 0.39 2.16 0.56 4.39 1.19 6.48 0.58 1.92-0.01 3.08-1.49 4.17-3.02 2.22-5.99 4.52-8.97 6.8-8.93 6.85-17.86 13.71-26.79 20.56-0.39 0.3-0.79 0.58-1.19 0.86-1.73 1.16-2.49 0.89-2.83-1.11-0.7-4.01-1.34-8.02-2-12.04-0.08-0.48-0.08-0.98-0.13-1.72-0.37-1.47 0.86-2.31 1.94-3.16zm318.54-30.51c2.83-2.46 5.66-4.94 8.46-7.44 1.09-0.97 1.08-1.15-0.23-1.85-4.07-2.18-8.3-3.76-12.99-4.03-1.78-0.1-3.12 0.31-4.33 1.65-3.43 3.83-6.96 7.58-10.44 11.37-5.79 6.33-11.2 12.98-16.43 19.78-5.53 7.19-10.66 14.66-15.55 22.3-0.79 1.24-1.53 2.53-3.06 3.05-0.86 0.29-0.89 1.04-0.95 1.8-0.17 2.55 1.16 4.57 2.43 6.55 2.93 4.56 7.43 6.96 12.38 8.74 1.77 0.64 2.94 0.81 4.41-1.08 2.64-3.39 6.52-5.41 10.38-7.21 7.55-3.52 15.24-6.71 22.94-9.9 4.98-2.06 10.08-3.86 14.85-6.39 8.15-4.33 13.91-10.48 14.96-20.13 0.3-2.76 0.15-5.44-0.59-8.15-4.82 2.3-15.27 10.34-16.26 12.54 1.72 0.52 3.46 0.97 5.14 1.58 1.27 0.46 1.4 1.61 0.34 2.43-0.79 0.62-1.78 0.83-2.75 0.93-3.87 0.42-7.48-0.41-10.81-2.38-3.52-2.08-6.23-4.99-8.48-8.36-3.74-5.61-4.58-11.58-2.19-17.94 0.56-1.48 1.34-2.81 2.52-3.86 0.78-0.69 1.67-0.98 2.69-0.37 0.91 0.55 0.74 1.38 0.65 2.18-0.06 0.56-0.25 1.11-0.39 1.66-0.48 1.99-0.83 3.99-0.57 5.74 1.26-1.03 2.58-2.09 3.87-3.21zm32.3 4.34c-1.41 0.89-1.42 0.9-0.68 2.49 1.58 3.38 2.32 6.92 2.35 10.66 0.02 2.79-0.18 5.54-0.72 8.27-0.18 0.92 0.27 1.38 1 1.18 2.59-0.71 5.2 0.48 7.78-0.21 0.68-0.18 1.47-0.04 2.19 0.03 2.24 0.23 2.42 0.09 2.39-2.06-0.01-0.33-0.01-0.66-0.05-0.98-0.63-4.68-1.2-9.36-1.91-14.03-0.58-3.78-1.3-7.54-2.64-11.54-3.4 2.18-6.56 4.19-9.71 6.19z"/>
	<path class="st2" d="m414.03 417.64c1.21 3.59 3.08 6.81 5.68 9.59 2.36 2.53 4.89 4.84 8.11 6.21 1.14 0.48 1.22 1.1 0.85 2.09-1.02 2.76-2.29 5.41-3.75 7.96-0.5 0.88-1.11 1.3-2.16 1.2-7.02-0.65-14.05-0.15-21.07 0-14.06 0.3-28.12-0.19-42.17-0.21-28.36-0.05-56.73-0.13-85.09 0.22-3.05 0.04-3.02 0.01-3.7-3.04-1.54-6.94-2.31-14-3.32-21.02-0.24-1.7-0.5-3.39-0.75-5.13 1.17-0.44 2.31-0.15 3.41 0.02 5.84 0.87 11.25 0.12 16.5-2.91 7.08-4.08 14.79-4.17 22.59-2.39 6.21 1.42 12.27 3.36 18.32 5.33 3.29 1.07 6.61 1.83 10.09 0.92 1.06-0.28 1.88 0.36 2.76 0.77 11.62 5.39 23.3 10.65 35.19 15.43 3.33 1.34 6.75 2.44 10.08 3.77 3.33 1.34 6.04 0.73 8.72-1.73 5.78-5.31 11.75-10.4 17.65-15.57 0.59-0.53 1.11-1.2 2.06-1.51zm42.8 15.06c-0.64 0.55-0.68 0.99-0.34 1.67 1.59 3.13 3.2 6.25 4.72 9.41 0.63 1.32 1.58 1.68 2.95 1.6 2.28-0.12 4.58-0.15 6.87-0.15 35.24-0.02 70.48-0.02 105.72-0.03 0.65 0 1.31 0.03 1.96-0.01 2.72-0.18 3.42-1.06 3.08-3.79-0.64-5.1-1.26-10.21-1.91-15.31-0.32-2.54-0.69-5.08-1.04-7.68-6.22 3.12-8.83 3.86-13.35 4.25-7.35 0.64-14.09-1.16-20.4-4.81-2.19-1.27-4.39-2.52-6.81-3.31-1.42-0.46-2.74-0.49-4.24 0.1-8.42 3.33-16.89 6.54-25.36 9.76-7.55 2.87-15.16 5.57-23.07 7.34-1.56 0.35-2.92 0.15-4.2-0.7-1.02-0.68-2.02-1.4-2.97-2.16-2.94-2.35-5.57-5.05-8.31-7.63-1.12-1.05-2.28-2.05-3.69-3.3-2.24 7.76-3.27 9.34-9.61 14.75zm-249.27 65.03c18.9-16.02 37.77-32.07 56.73-48.01 1.96-1.65 2.6-3.29 2.06-5.73-0.77-3.5-1.31-7.06-1.94-10.59-0.94-5.3-1.85-10.61-2.8-15.91-0.32-1.77-0.46-1.83-2.23-1.43-1.52 0.34-2.97 0.88-4.37 1.55-5.83 2.8-10.78 6.76-15.14 11.49-3.99 4.34-7.58 9-11.17 13.67-3.31 4.31-7.34 7.63-12.72 9.1-2.57 0.7-4.44 2.38-5.64 4.76-1.14 2.26-2.31 4.51-3.37 6.8-1.04 2.26-2.43 4.25-4.25 5.94-0.48 0.44-0.95 0.9-1.43 1.34-0.83 0.78-1.13 1.6-0.89 2.83 0.54 2.88 0.83 5.82 1.25 8.72 0.85 5.86 1.87 11.69 3.16 17.77 1.05-0.87 1.91-1.58 2.75-2.3zm-87.32-226.14c-0.37-0.98-0.17-1.92 0.83-2.57 0.94-0.61 1.75-0.3 2.46 0.32 0.67 0.59 1.32 1.25 1.81 1.98 4.47 6.68 6 13.88 3.63 21.69-1.39 4.58-3.93 8.41-7.75 11.34-2.09 1.61-4.47 1.89-6.98 1.46-1.03-0.18-1.8-0.74-1.98-1.88-0.18-1.16 0.4-1.85 1.38-2.32 0.47-0.22 1.22-0.08 1.23-0.91-4.08-0.79-8.27-0.99-12.19-2.54-0.93-0.37-1.4 0.03-1.36 1.02 0.05 1.06 0.12 2.12 0.18 3.18 0.39 6.33 4.43 11.11 10.66 12.37 9.46 1.92 18.99 1.97 28.54 0.73 7.71-1 15.17-3.17 22.64-5.24 4.2-1.17 8.14-2.98 11.47-5.86 5.2-4.5 5.65-10.62 1.18-15.79-1.73-2.01-3.89-3.48-6.2-4.74-5.15-2.83-10.3-5.67-15.47-8.46-8.05-4.36-16.29-8.29-25.11-10.88-3.78-1.11-7.62-1.86-11.59-1.67-4.9 0.24-8.49 2.91-9.79 7.16-0.31 1.02-0.35 1.68 0.87 2.01 1.89 0.52 3.76 1.11 5.62 1.72 2.4 0.79 4.81 1.52 7.73 1.71-0.72-1.49-1.36-2.62-1.81-3.83zm465.27 18.36c2.67-0.75 5.37-1.41 8.01-2.23 6.77-2.12 13.49-4.37 19.91-7.47 3.67-1.77 5.69-4.48 6.12-8.47 0.06-0.57 0.14-1.14 0.18-1.7 0.91-11.5-5.14-24.87-19.9-31.04-2.18-0.91-4.41-1.12-6.7-0.48-1.34 0.37-2.71 0.62-4.03 1.02-6.73 2.05-12.56 5.81-18.32 9.68-1.7 1.14-1.67 1.19-1.13 3.17 1.37 4.98 3.49 9.65 5.7 14.3 3.58 7.53 6.98 15.11 7.67 23.64 0.93-0.02 1.71-0.2 2.49-0.42zm74.39 277.01c0.97 0.25 1.73-0.1 2.49-0.66 9.81-7.19 18-15.84 23.86-26.57 2.04-3.73 3.65-7.65 4.77-11.76 0.48-1.77 0.08-2.51-1.57-3.28-0.69-0.32-1.41-0.44-2.14-0.44-1.55-0.01-3.11-0.06-4.65 0.04-6.27 0.4-11.39 2.93-15.38 7.91-3.55 4.44-6.14 9.42-8.77 14.4-3.11 5.87-6.44 11.56-12.27 15.88 4.79 1.82 9.16 3.33 13.66 4.48zm-259.79-155.39c-4.11-1.05-8.06-2.66-12.16-3.78-4.86-1.32-9.59-1.45-14.45 0.08-5.37 1.69-10.84 3.03-16.28 4.51-0.6 0.16-1.24 0.19-1.74 0.85 8.96 4.08 17.76 8.37 26.87 11.97 2.12 0.84 4.3 1.55 6.46 2.29 1.28 0.44 2.3 0.18 3.28-0.88 3.78-4.08 8.02-7.7 12.04-11.54 0.64-0.61 1.42-1.09 1.9-2.04-2.03-0.5-3.98-0.96-5.92-1.46zm219.21 121.48c1.38-0.43 3.27 0.05 4.07-1.21 0.73-1.16 0.71-2.81 0.96-4.25 1.66-9.4 3.02-18.85 3.33-28.41 0.07-2.12-0.38-2.75-2.39-3.3-1.47-0.4-2.9-0.29-4.3 0.37-1.12 0.53-2.06 1.31-3.02 2.07-1.17 0.93-1.63 2.03-1.69 3.57-0.26 6.86-1.1 13.66-2.3 20.41-0.83 4.65-1.7 9.28-2.61 14.25 2.82-1.41 5.28-2.67 7.95-3.5zm14.74 61.12c6.72-1.58 12.43-5.2 18.03-9.02 0.55-0.38 0.95-0.89 1.24-1.49 0.34-0.71 0.32-1.26-0.65-1.37-0.81-0.09-1.62-0.18-2.42-0.33-4.42-0.84-8.62-2.4-12.77-4.1-0.89-0.37-1.75-0.76-2.78-0.15-3.64 2.19-7.26 4.39-10.16 7.57-1.33 1.46-2.36 3.1-3.14 4.92-0.51 1.18-0.29 1.96 0.86 2.63 2.16 1.27 4.49 1.87 7.36 2.08 1.22-0.2 2.85-0.37 4.43-0.74zm-119.98-180.62 0.16-0.14c-0.73 0.06-1.45 0.13-2.18 0.27-5.06 0.96-10.17 1.5-15.32 1.58-8.45 0.14-16.77-0.85-24.91-3.16-0.66-0.19-1.39-0.63-2.06 0.05l-0.03-0.04c0.69 0.19 0.99 0.82 1.43 1.29 3.15 3.33 6.49 6.43 10.09 9.26 1.43 1.12 2.85 1.36 4.55 0.74 2.83-1.04 5.69-1.99 8.54-2.96 6.63-2.26 13.25-4.51 19.88-6.77l-0.15-0.12zm125.1 159.11c-0.02 0.8 0.14 1.38 1.06 1.64 3.76 1.06 7.49 2.18 11.24 3.26 0.83 0.24 1.69 0.43 2.63 0.16 0-0.78 0.02-1.42 0-2.06-0.05-1.38 0.29-2.97-0.29-4.08-0.62-1.2-2.52-0.82-3.75-1.44-0.43-0.22-0.9-0.37-1.35-0.55-2.71-1.11-5.42-2.21-8.33-3.41-0.72 2.3-1.16 4.35-1.21 6.48zm-402.39 47.82c-0.28-1.11-0.94-1.66-2.04-1.73-3.01-0.2-5.6 0.67-7.61 3-0.39 0.45-0.64 0.97-0.57 1.56 0.38 3.08 0.88 6.14 1.65 9.57 2.55-3.95 6-5.43 10.43-5.44-0.68-2.57-1.31-4.76-1.86-6.96zm440.69-110.74c0.42-1.44 0.56-2.99-0.69-4.12-1.19-1.08-2.66-1.08-4.16-0.62-0.64 0.2-1.18 0.55-1.68 0.98-2.61 2.25-4.45 4.97-5.25 8.35-0.51 2.14-0.07 2.72 2.06 2.68 3.62-0.06 8.7-3.83 9.72-7.27zm-477.66 131.56c-1.07-2.31-2.7-2.67-4.62-1-0.81 0.71-1.41 1.58-1.82 2.56-1.1 2.63-1.37 5.34-0.53 8.09 0.41 1.34 1.09 2.54 2.22 3.43 1.2 0.94 2.26 0.83 3.11-0.42 0.45-0.66 0.74-1.44 1.05-2.18 0.96-2.29 0.97-4.76 1.3-7.38 0.01-0.55-0.37-2.35-0.71-3.1zm428.31-159.89c0-0.77-0.26-1.2-1.11-1.25-3.85-0.23-6.91 1.59-9.85 3.73-0.17 0.12-0.28 0.41-0.3 0.64-0.23 2.32-0.3 4.64-0.16 7.44 3.58-2.93 7.24-3.25 11.42-1.72 0-3.15-0.01-6 0-8.84zm-10.44-4.49c2.81-2.11 5.84-3.56 9.47-3.29 0.81 0.06 0.97-0.35 0.97-1.02-0.01-1.47-0.02-2.93 0.01-4.4 0.02-1.06-0.52-1.42-1.51-1.43-3.69-0.03-6.83 1.31-9.49 3.83-0.49 0.46-0.84 1-0.77 1.72 0.16 1.59 0.33 3.17 0.48 4.65 0.43 0.22 0.65 0.08 0.84-0.06zm-384.68 172.46c2.32-2.49 4.96-4.46 8.35-5.21 1.69-0.38 1.73-0.44 1.33-1.98-0.3-1.14-0.8-1.8-2.16-1.72-1.6 0.1-3.03 0.54-4.34 1.42-1.91 1.28-3.48 2.92-4.98 4.65-0.48 0.55-0.66 1.11-0.55 1.78 0.15 0.93 0.34 1.84 0.57 3.06 0.72-0.82 1.24-1.42 1.78-2zm7.71-13.82c-0.58-3.1-0.76-3.25-3.62-2.81-3 0.46-5.07 2.36-6.99 4.54-0.96 1.09-1.28 2.14-0.54 3.84 3-3.7 6.6-5.65 11.15-5.57zm229.06-223.41s0.07-0.09 0.07-0.09l-0.1 0.05c0 0.01 0.03 0.04 0.03 0.04zm-100.33-154.07c0.63 5.35 1.28 10.69 1.83 16.05 0.13 1.28 0.5 1.85 1.86 1.98 10.65 0.96 21.3 2.08 32.01 1.93 0.8-0.01 1.63 0.21 2.42-0.27-0.94-6.7-2.16-13.36-3.61-19.97-0.44-1.99-0.45-1.97-2.48-2.03-8.65-0.26-17.3-0.72-25.9-1.73-2.17-0.25-4.35-0.42-6.83-0.66 0.27 1.79 0.53 3.24 0.7 4.7zm94.35 16.88c1.15 0.04 1.46-0.57 1.23-1.54-1.54-6.35-2.09-12.88-3.64-19.23-0.58-2.38-1.14-4.76-1.8-7.12-0.45-1.61-0.54-1.6-2.25-1.07-0.23 0.07-0.48 0.12-0.71 0.2-6.61 2.38-13.42 4.1-20.26 5.66-3.63 0.83-3.59 0.79-2.85 4.42 1.02 5.03 2.27 10.03 2.72 15.17 0.34 3.85 0.34 3.8 4.28 3.99 6.54 0.32 13.07 0.08 19.47-0.5 1.36 0.01 2.59-0.02 3.81 0.02zm-171.06-194.76c-9.79 1.44-18.47 5.18-25.69 12.13-9.64 9.28-14.63 20.72-15.75 33.88-1.17 13.72 1.35 26.82 7.11 39.33 0.64 1.39 1.4 2.01 2.92 1.94 1.55-0.07 3.11 0.03 4.66 0.1 2.95 0.14 5.84 0.64 8.67 1.48 5.3 1.57 9.19 4.81 11.67 9.76 2.93 5.86 3.05 11.77 0.38 17.72-0.48 1.08-0.64 1.75 0.56 2.56 12.11 8.12 25.29 12.46 39.99 11.21 13.27-1.12 24.22-6.92 32.73-17.15 8.25-9.92 11.41-21.71 11.78-34.33 0.23-7.88-0.87-15.66-3.11-23.22-6.99-23.59-21.99-40.24-44.19-50.54-7.49-3.48-15.36-5.46-24.77-5.46-1.61-0.04-4.29 0.19-6.96 0.59zm67.18 90.19c-1.79 7.15-6.02 12.61-11.97 16.78-5.09 3.56-10.76 3.97-16.67 2.76-4.38-0.9-8.42-2.63-12.04-5.25-11.89-8.6-19.14-20.09-21.53-34.63-1.23-7.52-1.29-14.96 1.07-22.29 1.11-3.45 2.67-6.67 5-9.48 6.88-8.3 18.45-11.09 28.19-6.41 15.76 7.57 25.17 20.09 28.19 37.35 0.62 3.55 0.93 7.12 0.98 9.97 0.02 4.29-0.36 7.77-1.22 11.2zm116.97-35.48c0.93-0.58 1.17-1.27 0.94-2.25-0.4-1.66-0.7-3.36-1.22-4.99-4.44-13.94-12-25.83-23.18-35.4-10.31-8.82-21.82-14.78-35.52-16.2-12.53-1.29-23.85 1.48-33.8 9.32-9 7.09-14.07 16.55-16.73 27.52-0.48 1.96-0.27 3.54 0.7 5.33 5.97 10.98 9.52 22.7 10.18 35.23 0.21 3.92 0.1 7.85-0.45 11.75-0.19 1.34-0.04 2.53 0.78 3.71 7.81 11.24 17.74 20 30.02 26.1 1.39 0.69 2.54 0.68 3.87-0.2 3.49-2.3 6.77-4.86 9.93-7.58 0.4-0.35 1.02-0.58 0.94-1.32-0.26-0.18-0.52-0.37-0.8-0.54-18.49-10.88-27.32-33.7-24.65-50.71 1.01-6.47 3.2-12.51 7.36-17.66 4.97-6.15 11.55-8.5 19.22-7.14 11.59 2.06 20.2 8.39 25.62 18.92 2.14 4.16 3.55 8.59 4.7 13.11 0.74 2.92 1.31 5.88 2.05 9.21 6.15-6.46 12.8-11.71 20.04-16.21z"/>
	<path class="st3" d="m438.26 435.42c0.36 0.06 0.6 0.08 0.84 0.14 2.52 0.64 5.04 0.61 7.49-0.22 1.04-0.35 1.47-0.03 1.84 0.88 1.28 3.18 2.58 6.35 3.93 9.51 3.3 7.74 6.57 15.49 10.86 22.76 0.62 1.04 0.45 1.72-0.32 2.58-6.11 6.82-12.04 13.79-18.77 20.02-1.72 1.59-1.75 1.6-3.54-0.02-6.13-5.54-11.76-11.58-17.46-17.55-0.62-0.65-1.22-1.32-1.85-1.96-2.23-2.24-2.04-1.87-0.34-4.41 5.21-7.74 9.82-15.82 13.57-24.37 0.89-2.02 1.78-4.04 2.38-6.17 0.2-0.76 0.48-1.44 1.37-1.19zm-10.81-11.75c1.99 2.29 4.51 3.71 7.45 4.45 5.14 1.31 10.18 0.9 15.16-0.8 2.1-0.72 3.74-1.99 4.96-3.8 2.35-3.47 3.36-7.39 3.76-11.49 0.01-0.12-0.16-0.27-0.31-0.51-11.74 2.82-23.64 4.61-36.27 3.63 1.36 3.54 3.17 6.12 5.25 8.52zm200.62 69.01c0.07-0.96-0.34-1.47-1.26-1.77-2.33-0.75-4.67-0.99-6.87 0.19-3.41 1.84-4.03 2.4-3.34 6.71 6.54-3.79 6.58-3.8 11.26-2.1 0.36-1.08 0.14-2.07 0.21-3.03zm-388.37 138.97c-0.41-3.15-0.47-3.17-3.07-2.99-3.28 0.22-5.62 1.89-7.39 4.56-0.78 1.17-1.17 2.3-0.29 3.94 2.83-3.62 6.16-5.91 10.75-5.51zm31.52-408.08c0.08 0.7 0.6 1.15 0.97 1.67 2.11 3.01 4.13 6.09 5.9 9.32 4.96 9.03 9.94 18.04 14.77 27.14 6.14 11.56 12.8 22.81 20.21 33.6 3.29 4.78 6.53 9.6 9.78 14.41 0.71 1.05 1.33 2.16 2.01 3.28 0.54-0.52 0.35-1.03 0.41-1.48 1.06-7.44 3.87-13.98 9.71-18.98 4.53-3.88 9.75-6.14 15.67-6.96 6.5-0.89 12.04 1.69 15.28 7.4 1.63 2.86 2.75 5.92 3.5 9.12 0.91 3.91 1.16 7.91 1.53 11.89 0.67 7.17 5.47 10.77 12.1 9 3.55-0.95 6.51-2.78 7.29-6.78 0.3-1.53 0.25-3.08-0.08-4.63-0.53-2.48-1.08-4.95-1.52-7.44-1.1-6.2 0.76-9.85 6.53-12.41 6.67-2.97 13.22-2.66 19.39 1.39 5.89 3.86 9.72 9.35 12.16 15.88 3.11 8.33 3.5 16.89 2.25 25.6-0.26 1.78-0.55 3.55-0.82 5.33-0.12 0.8 0.21 1.24 1.05 1.28 0.9 0.04 1.8 0.04 2.69 0.17 12.81 1.86 23.56 7.49 31.95 17.44 0.37 0.44 0.75 0.86 1.13 1.29 0.52 0.6 1.09 0.67 1.7 0.16 0.37-0.32 0.72-0.66 1.07-1.01 10.98-10.77 19.13-23.38 24.25-37.88 5.03-14.24 7.51-29.08 9.75-43.93 1.51-10.01 2.72-20.06 3.64-30.15 0.83-9.11 1.82-18.2 2.71-27.3 0.11-1.16 0.02-2.34 0.02-3.5-0.54-0.03-0.72 0.27-0.93 0.49-6.27 6.7-13.69 11.87-21.62 16.38-5.12 2.91-10.43 5.44-15.71 8.05-2.07 1.02-2.13 1.17-1.57 3.42 1.82 7.21 3.3 14.49 4.42 21.83 0.6 3.96 0.98 7.96 0.91 11.96-0.05 3.13-0.6 3.62-3.68 4.11-11.6 1.88-23.26 2.01-34.95 0.99-1.87-0.16-3.71-0.56-5.48-1.23-1.13-0.42-1.67-1.15-1.71-2.39-0.18-5.73-1.31-11.35-2.15-17-0.38-2.58-0.93-5.14-1.4-7.71-0.14-0.75-0.26-1.61-1.29-1.35-2.79 0.7-5.67 0.69-8.49 1.17-1.49 0.25-1.56 0.38-1.31 1.97 0.86 5.4 1.77 10.79 2.58 16.2 0.44 2.9 0.79 5.83 1.06 8.75 0.23 2.52-0.07 2.76-2.47 3.29-1.46 0.33-2.92 0.29-4.39 0.3-10.22 0.09-20.43-0.22-30.63-0.95-4.56-0.33-9.14-0.39-13.64-1.33-2.27-0.48-2.49-0.71-2.68-3.04-0.09-1.06-0.12-2.12-0.24-3.18-0.89-7.7-2.4-15.32-3.18-23.04-0.2-1.97-0.26-1.94-2.21-2.22-2.83-0.4-5.67-0.74-8.47-1.29-14.46-2.83-28.59-6.83-42.46-11.77-10.02-3.57-19.86-7.53-29.29-12.48-1.95-1.02-3.74-2.34-5.82-3.12-0.05 0.12-0.12 0.19-0.2 0.27zm134.71 127.67c3.35 2.76 6.59 5.64 8.97 9.32 0.35 0.54 1.24 1.17 0.53 1.88-0.76 0.76-1.49 0.02-2.15-0.44-0.13-0.09-0.27-0.18-0.4-0.28-8.65-6.48-18.45-10.43-28.87-12.92-4.55-1.08-9.17-1.58-13.84-0.69-2.81 0.53-5.35 1.52-7.04 4-0.85 1.24-0.8 1.42 0.44 2.37 0.78 0.6 1.59 1.15 2.36 1.75 14.88 11.54 31.9 16.82 50.56 17.34 7.95 0.22 15.83-0.46 23.64-1.93 5.81-1.09 11.41-2.83 16.58-5.77 1.78-1.01 1.85-1.33 0.81-3.05-1.16-1.92-2.82-3.38-4.6-4.7-5.58-4.13-11.87-6.82-18.36-9.12-6.55-2.32-13.26-3.46-20.22-2.84-3.66 0.33-7.2 1.16-10.76 2.83 0.73 1.13 1.6 1.63 2.35 2.25zm-134.48-127.9c-0.15-0.22-0.32-0.41-0.54-0.09-0.02 0.02 0.2 0.21 0.31 0.31 0.08-0.07 0.15-0.14 0.23-0.22zm217.03 152.06c-0.65 0.33-1.33 0.62-1.96 0.99-7.46 4.47-15.35 7.98-23.58 10.77-9 3.05-18.17 5.38-27.67 6.01-9.91 0.66-19.74-0.34-29.48-2.17-11.21-2.11-21.89-5.88-32.32-10.45-2.14-0.94-4.24-2-7.02-2.55 2.27 2.26 4.51 3.86 6.67 5.54 5.56 4.33 11.37 8.27 18.01 10.8 17.02 6.47 34.52 8.98 52.65 6.39 16.59-2.37 30.75-9.52 42.48-21.48 1.02-1.04 2.09-2.08 2.52-3.55l-0.3-0.3zm0.3 0.3c0.09-0.12 0.28-0.3 0.25-0.35-0.19-0.33-0.38-0.12-0.55 0.05l0.3 0.3zm-246.7-185.02c1.32-1.23 1.5-2.74 0.65-3.93-0.81-1.12-2.08-1.32-3.72-0.62-1.54 0.66-2.66 1.83-3.8 2.99-0.74 0.76-1.09 1.63-0.61 2.65 0.52 1.08 1.47 1.44 2.62 1.41 1.99-0.1 3.49-1.22 4.86-2.5zm11.85 4.58c-0.79 1.59-0.08 2.9 1.68 3.28 1.8 0.39 3.17-0.48 4.46-1.53 0.93-0.76 1.63-1.63 1.1-2.95-0.5-1.24-1.5-1.64-2.52-1.67-2.3 0.05-3.8 1.04-4.72 2.87zm257.93-21.59c0 1.46 1.8 3.02 3.57 3.11 1.85 0.09 3.53-1.09 3.6-2.54 0.09-1.68-1.57-3.13-3.63-3.17-1.98-0.04-3.54 1.11-3.54 2.6zm-244.31 9.99c1.14-0.33 2.12-0.98 2.22-2.29 0.1-1.28-0.65-2.13-1.74-2.69-1.6-0.83-3.68-0.29-5.04 1.29-0.69 0.8-0.94 1.68-0.56 2.7 0.39 1.04 1.28 1.13 2.2 1.13h1.5c0.14-0.01 0.81 0.04 1.42-0.14zm251.39 5.93c1.47 1.03 3.19 0.61 4.44-1.07 1-1.35 0.7-2.48-1-3.64-0.89-0.61-1.88-1.01-2.96-1.03-1.5-0.03-2.3 0.77-2.33 2.2-0.03 1.32 0.72 2.76 1.85 3.54zm13.98-4.35c0.29 0.59 0.67 1.12 1.17 1.54 0.95 0.79 1.95 1.1 3.14 0.47 1.14-0.61 2.02-1.85 1.89-2.89-0.16-1.31-1.08-1.93-2.25-2.26-0.54-0.15-1.1-0.26-1.33-0.31-2.94-0.13-3.76 1.1-2.62 3.45z"/>
	<path class="st4" d="m217.72 315.14c-0.26 5.46-0.47 10.94-1.88 16.26-1.63 6.2-4.51 11.7-9.16 16.22-2.3 2.23-4.99 3.34-8.17 3.3-4.85-0.06-9.1-1.55-12.57-5.11-6.03-6.17-9.81-13.59-12.27-21.76-0.75-2.5-1.37-5.04-1.92-7.59-0.46-2.1-0.24-2.22 1.63-3.15 5.35-2.67 9.1-6.79 11.09-12.47 0.55-1.58 0.66-3.21 0.43-4.84-0.71-5.23-2.52-9.95-6.49-13.64-1.76-1.64-1.74-1.67-0.24-3.53 4.24-5.28 11.87-7.11 18.21-4.35 3.68 1.6 6.67 4.08 9.12 7.23 6.89 8.85 10.96 18.86 12.2 30 0.13 1.13 0.02 2.29 0.02 3.43zm-67.1-54.45c-0.33-6.13-1.49-12-5.29-17.06-1.65-2.2-3.64-3.99-6.09-5.23-3.7-1.86-7.36-0.87-9.64 2.57-0.54 0.81-0.99 1.7-1.37 2.6-1.24 2.95-2.06 6.03-2.58 9.18-0.37 2.23-0.3 2.35 2 3.06 4.46 1.36 8.86 2.86 13.18 4.63 3.24 1.33 6.38 2.89 9.8 4.82 0-1.81 0.07-3.19-0.01-4.57zm56.4-166.53c-0.05-0.57-0.17-1.13-0.3-1.68-2.23-9.62-7.1-17.66-14.67-24-3.02-2.53-6.27-4.72-9.94-6.21-6.95-2.82-16.54 0.14-17.72 10.08-0.28 2.39 0.11 4.73 0.78 7.02 1.98 6.84 5.35 12.93 9.84 18.45 5.2 6.39 12.11 9.81 19.94 11.57 5.3 1.19 9.53-1.36 11.33-6.51 0.66-1.88 0.9-3.81 0.91-5.78-0.05-0.98-0.08-1.97-0.17-2.94zm110.41 264.96c-1.59-7.51-5.73-13.11-12.67-16.47-4.84-2.35-9.7-1.44-13.51 2.35-2.63 2.62-4.32 5.77-4.78 9.45-0.89 7.06 0.1 13.86 3.14 20.31 1.82 3.86 4.55 6.96 8.27 9.13 6.16 3.6 12.21 2.18 16.17-3.79 2.84-4.29 4.12-9.03 3.98-14.24 0.05-2.22-0.12-4.5-0.6-6.74zm215.43-25.16c1.35 5.32 6.55 9.36 12.05 9.38 4.1 0.02 7.34-2 10.36-4.43 8.32-6.68 8.5-20.63 3.63-28.02-3.8-5.78-12.08-7.24-17.22-2.86-6.18 5.27-9.64 12.04-9.61 19.9 0.16 2.34 0.33 4.21 0.79 6.03zm-250.72-13.57c-0.39-6.16-2.75-11.18-8.26-14.41-1.15-0.68-2.34-1.09-3.69-1.1-3.95-0.03-6.6 2.09-8.51 5.26-2.54 4.22-3.18 8.86-2.48 13.68 0.63 4.33 2.34 8.11 5.73 11.03 5.26 4.53 11.37 3.45 14.75-2.64 1.75-3.14 2.39-6.56 2.45-10.11 0.02-0.56 0.05-1.14 0.01-1.71zm-79.38-194.1c-0.14-0.08-0.29-0.16-0.43-0.23-3.05-1.49-5.75-0.9-7.84 1.77-1.13 1.45-1.7 3.09-1.78 4.98-0.31 7.15 2.69 12.82 7.7 17.6 2.42 2.31 5.33 3.77 8.66 4.28 4.11 0.64 7.15-1.93 7.2-7.17-1.33-8.2-5.06-16.14-13.51-21.23zm288.77-40.09c1.19 1.62 2.7 2.84 4.61 3.52 2.47 0.88 4.78 0.08 6.18-2.12 0.57-0.91 0.9-1.92 1.1-2.97 0.48-2.43 0.52-4.87 0.02-7.31-0.87-4.21-2.88-7.82-5.89-10.83-3.07-3.06-6.92-2.29-8.78 1.64-0.93 1.96-1.28 4.04-1.24 5.43 0.05 5.15 1.41 9.1 4 12.64zm69.8 281.94c-0.66-2.38-2.25-3.7-4.71-3.96-1.79-0.19-3.37 0.36-4.83 1.37-4 2.76-6.35 8.68-5.1 13.4 0.67 2.55 1.72 5.2 4.6 5.87 3.13 0.73 5.71-0.73 7.73-3.16 0.31-0.37 0.57-0.79 0.83-1.21 1.51-2.44 2-5.14 1.97-8.16 0.1-1.28-0.09-2.73-0.49-4.15zm-422.35-222.03c-3.11-4.3-7.01-7.77-11.7-10.26-7.03-3.73-13.83-3.26-20.23 1.53-4.41 3.3-6.88 7.91-7.95 13.14-2.68 13.07 0.3 24.98 8.25 35.59 3.59 4.79 8.29 8.37 13.89 10.56 7.06 2.76 13.48 1.63 18.91-3.85 5.48-5.53 7.74-12.34 7.9-20.32-0.29-9.51-3.3-18.42-9.07-26.39zm73.45 250.34c-0.87-3.97-2.42-7.6-5.32-10.55-1.6-1.62-3.51-2.27-5.76-2.1-3.23 0.25-5.2 2.12-6.43 4.92-1.53 3.46-1.75 7.09-1.18 10.79 0.81 5.27 2.58 10.11 6.55 13.89 4.06 3.87 9.64 2.56 11.58-2.7 0.94-2.56 1.35-5.2 1.12-7.97 0.09-2.09-0.11-4.2-0.56-6.28z"/>
	<path class="st5" d="m616.81 482.34v-2.83c0-0.42 0.08-0.81 0.45-1.07 2.8-2.01 5.62-3.95 9.3-3.82 1.7 0.06 1.8 0.14 1.87 1.81 0.02 0.57 0 1.14-0.04 1.71-0.05 0.64-0.31 1.08-1.07 1-3.72-0.36-6.81 1.24-9.8 3.15-0.12 0.08-0.31 0.03-0.71 0.05zm-375.09 157.14c-0.31-2.87-0.4-2.98-2.71-2.78-3.36 0.29-5.9 2.03-8.15 4.46-1.32 1.43-1.45 2.74-0.42 4.59 3.19-3.25 6.16-6.81 11.28-6.27zm166.13-480.13c3.98 9.22 10.02 16.57 19.22 21.08 1.43 0.7 2.44 0.81 3.68-0.37 2.66-2.53 5.53-4.84 8.2-7.37 4.46-4.22 8.48-8.84 11.92-13.95 0.6-0.9 1.06-1.76 0.86-2.94-0.51-3.06-0.8-6.15-1.35-9.2-1.39-7.67-4.2-14.75-9.29-20.77-3.68-4.35-8.21-7.4-13.69-9.07-3.71-1.13-7.41-1.19-11.07 0.08-5.77 2.01-8.88 6.44-10.48 12.06-1.17 4.1-1.67 8.32-1.62 12.59-0.06 6.21 1.17 12.17 3.62 17.86zm7.75-22.41c0.97-3.71 3.17-6.42 6.78-7.83 4.07-1.59 7.68-0.8 10.78 2.3 4.84 4.84 7.7 10.7 8.87 17.39 0.6 3.46 1.06 6.94 0.58 10.47-0.34 2.48-1.29 4.72-2.73 6.75-2.03 2.86-4.56 3.68-7.93 2.69-3.13-0.92-5.81-2.6-8.1-4.88-5.75-5.73-8.94-12.58-8.86-21.62-0.05-1.24 0.09-3.28 0.61-5.27zm-100.45 36.73c4.36 5.04 9.59 8.85 16.07 10.74 7.48 2.18 13.71 0.1 18.4-6.12 1.78-2.37 3.15-4.97 4.09-7.77 2.79-8.35 2.57-16.74-0.02-25.04-4.17-13.35-12.28-23.28-25.58-28.47-7.33-2.86-13.85-1.17-18.94 4.82-4.71 5.55-6.81 11.99-6.67 17.85 0.2 13.79 4.55 24.63 12.65 33.99zm28.67-5.71c-2.77 4.91-7.62 6.53-12.73 4.13-3.48-1.64-6.29-4.13-8.45-7.27-4.95-7.17-6.97-15.2-6.66-23.85 0.08-2.14 0.74-4.18 1.71-6.09 2.62-5.21 7.91-6.87 12.99-4.04 2.38 1.32 4.44 3.06 6.14 5.19 5.44 6.85 8.63 14.55 8.73 23.39 0.07 2.98-0.22 5.87-1.73 8.54z"/>
	<path class="st6" d="m643.6 536.91c0.86-1.03 0.57-2.13 0.61-3.17 0.22-7.16 1.34-14.14 3.94-20.84 2.06-5.32 4.86-10.2 9.07-14.11 6.98-6.49 15.16-8.33 24.31-5.89 3.47 0.92 6.4 2.88 8.88 5.46 4.03 4.19 6.93 9.1 8.66 14.64 1.48 4.74 1.1 9.52-0.13 14.28-1.49 5.76-4.04 11.03-7.28 15.97-6.63 10.1-14.64 18.85-25.01 25.22-3.48 2.14-5.42 5.06-5.78 9.12-0.14 1.62-0.49 3.23-0.78 4.83-0.35 1.93-1.31 3.54-2.85 4.73-5.05 3.89-10.13 7.75-15.86 10.63-3.59 1.81-7.31 3.19-11.34 3.76-4.78 0.67-9.28-0.16-13.58-2.22-3.33-1.59-5.02-4.33-5.06-8.03-0.01-1.63 0.01-3.27 0.16-4.9 0.13-1.3-0.26-2.18-1.38-2.86-1.54-0.93-2.95-2.06-4.29-3.27-8.3-7.47-9.61-18.55-6.09-28.16 0.99-2.7 2.38-5.2 4.13-7.48 0.88-1.15 1.35-2.39 1.45-3.82 0.72-9.46 1.56-18.9 2.17-28.36 0.81-12.66 0.95-25.33 0.78-38.01-0.07-5.47-0.39-10.93-1.59-16.54-3.64 1.45-7.3 2.56-10.63 4.5-1.22 0.71-1.54 1.75-1.51 3.09 0.13 4.91 0.71 9.78 1.3 14.65 0.76 6.33 1.48 12.66 1.6 19.05 0.04 2.5-0.73 4.19-2.87 5.74-12.96 9.31-24.93 19.86-37.02 30.26-6.45 5.55-12.91 11.07-19.53 16.41-1.65 1.33-3.27 2.72-4.81 4.18-3.42 3.26-7.48 4.87-12.18 4.95-5.31 0.09-10.63 0.18-15.94 0.28-51.75 1-103.51 2.19-155.27 2.53-1.86 0.01-2.82 0.64-3.44 2.35-2.26 6.21-4.54 12.42-6.96 18.57-1.35 3.41-2.91 6.75-4.53 10.04-2.18 4.41-6.13 6.37-10.71 7.34-4.46 0.94-8.97 0.8-13.43 0.3-2.85-0.32-4.59 0.65-6.08 3-6.96 10.98-14.05 21.86-21.62 32.43-9.02 12.59-18.88 24.46-30.06 35.2-0.77 0.74-1.52 1.49-2.32 2.18-1.96 1.71-4.08 2.98-6.85 2.55-0.56-0.09-1.15-0.08-1.71 0-2.98 0.44-5.2-0.98-7.22-2.89-2.18-2.06-3.61-4.62-4.81-7.33-3.2-7.21-5.21-14.77-6.4-22.55-0.43-2.83-0.74-5.67-1.09-8.51-0.33-2.62-0.35-2.64-2.91-3.01-0.4-0.06-0.81-0.1-1.21-0.19-3.01-0.7-2.8-1.17-4.89 2.04-1.14 1.75-1.7 3.67-1.68 5.79 0.04 5.09-0.59 10.11-1.94 15.02-0.74 2.71-1.98 5.18-3.69 7.4-4.73 6.13-10.76 8.13-18.24 6.05-9.14-2.55-14.16-8.88-14.9-18.43-0.75-9.6 2.61-17.45 9.64-23.84 4.89-4.44 10.51-7.76 16.46-10.51 3.11-1.44 6.3-2.71 9.45-4.05 2.16-0.92 2.2-0.98 2.07-3.25-0.09-1.55-0.1-3.11-0.24-4.65-0.16-1.78 0.47-3.18 1.75-4.37 1.21-1.11 2.47-2.15 3.87-3 7.76-4.7 16.09-7.11 25.23-6.26 3.56 0.33 4.88 1.77 4.93 5.37 0.01 1.15 0.02 2.35-0.51 3.36-0.85 1.63-0.33 2.87 0.6 4.27 2.14 3.22 3.12 6.78 2.91 10.69-0.19 3.49-1.27 6.6-3.87 8.99-1.06 0.98-1.27 1.84-0.86 3.2 1.43 4.68 2.73 9.4 4.07 14.07 0.86 0.1 1.05-0.55 1.36-0.94 11.27-14.07 21.55-28.77 29.01-45.29 0.92-2.03 0.95-2.03-0.86-3.27-5.03-3.45-9.44-7.52-13.06-12.47-2.9-3.97-3.74-7.91-0.75-12.18 0.07-0.1 0.01-0.3 0.01-0.7h-2.59c-15.37 0.08-30.75 0.17-46.12 0.22-3.11 0.01-6.21-0.12-9.32-0.23-1.84-0.06-2.06-0.21-2.37-2.09-0.82-5.08-1.56-10.17-2.33-15.26-1.57-10.42-3.11-20.84-4.7-31.26-1.68-10.98-3.4-21.95-5.11-32.93-0.35-2.26-0.67-4.53-1.08-6.78-0.19-1.01-0.39-1.94-1.5-2.6-6.39-3.83-9.56-9.85-11.16-16.87-0.9-3.96-0.96-7.97-0.38-11.95 1.06-7.2-0.17-14.01-3.21-20.52-3.03-6.49-7-12.41-11.98-17.54-6.39-6.59-9.26-14.43-9.54-23.46-0.16-5.3-0.22-10.63-1.17-15.88-1.02-5.64-3.39-10.74-6.51-15.48-2.83-4.3-5.83-8.49-8.73-12.74-3.22-4.73-6.33-9.54-8.06-15.06-0.31-0.98-0.87-1.24-1.77-1.3-3.43-0.22-6.85-0.44-10.27-0.74-3.83-0.34-7.6-1-11.22-2.39-6-2.31-10.14-6.37-12.19-12.54-1.24-3.74-2.23-7.51-2.49-11.45-0.14-2.14-0.2-2.13-2.36-2.72-5.36-1.47-10.81-1.55-16.3-1.19-1.79 0.12-2.95 0.85-3.9 2.42-2.77 4.6-4.46 9.6-5.91 14.73-2.26 7.99-3.52 16.11-3.22 24.44 0.07 2.01 0.08 2.04 2.06 1.73 3.69-0.58 7.35 0.1 11.01 0.35 4.65 0.32 9.27 1.02 13.65 2.74 8.75 3.43 13.71 9.97 15.35 19.11 0.56 3.11-0.27 5.99-2.05 8.6-1.54 2.25-3.42 4.17-5.62 5.77-0.69 0.5-1.18 1.02-1.15 1.99 0.22 8.06-7.61 17-16.4 18.67-3.01 0.57-6 0.86-8.96-0.13-0.91-0.31-1.53-0.04-2.27 0.36-6.16 3.24-12.52 3.34-18.99 1.11-1.94-0.67-3.78-1.63-5.25-3.08-1.52-1.5-3.14-1.88-5.12-1.09-1.21 0.49-2.5 0.73-3.81 0.84-3.72 0.31-6.68-1.08-9.12-3.82-2.39-2.69-3.46-6.08-4.89-9.27-0.22-0.48-0.09-1.13-0.09-1.7-0.01-2.78 0.08-5.56-0.03-8.34-0.07-1.86 0.39-3.53 1.14-5.19 1.76-3.89 4.06-7.45 6.37-11.02 0.93-1.44 1.88-2.87 2.77-4.34 1.16-1.92 1.97-4 1.93-6.25-0.21-12.33 2.5-24.16 5.88-35.89 2.58-8.94 5.09-17.9 8.33-26.63 0.77-2.07 1.63-4.09 2.82-5.96 1.73-2.71 4.17-4.29 7.33-4.84 10.31-1.78 20.66-1.77 31.04-0.69 4.55 0.47 9.07 1.15 13.67 2.03 0.6-1.7 0.36-3.07-0.84-4.48-2.55-2.99-4.72-6.26-6.84-9.56-2.3-3.57-4.54-7.17-7.13-10.55-3.4-4.43-5.31-9.55-5.72-15.15-0.34-4.6-2.32-8.24-5.95-11.07-3.74-2.92-7.71-5.52-11.53-8.32-6.01-4.41-10.57-9.94-13.16-17-2.12-5.79-2.56-11.79-2.02-17.88 0.29-3.32 1.49-6.34 3.3-9.13 1.03-1.58 2.14-3.11 3.43-4.47 4.48-4.73 6.86-10.36 7.87-16.79 1.25-7.92 3.4-15.64 6.8-22.94 3.06-6.58 6.95-12.57 12.6-17.29 2.23-1.86 3.76-4.29 5.11-6.83 3-5.68 4.82-11.77 6.35-17.96 2.43-9.79 5.81-19.21 10.8-28.02 1.58-2.78 3.37-5.4 5.57-7.74 5.65-5.99 12.58-7.93 20.55-6.49 4.98 0.9 9.96 1.84 14.91 2.88 5.8 1.23 11.54 0.96 17.24-0.48 7.62-1.92 15.27-3.61 23.17-3.73 5.81-0.09 11.55 0.03 17.2 1.9 4.57 1.51 9.39 1.2 14.11 0.48 7.91-1.21 15.81-2.48 23.78-3.32 6.2-0.66 12.41-0.46 18.59-0.22 3.51 0.14 7.13 0.93 10.48 2.32 9.62 3.99 19.57 3.96 29.67 2.66 9.72-1.26 19.41-2.78 29.21-3.4 7.51-0.48 14.87 0.19 22.07 2.27 8.38 2.42 16.91 2.66 25.52 2.08 8.26-0.55 16.33-2.28 24.44-3.81 7.88-1.49 15.79-1.3 23.67-0.1 7.1 1.08 14.12 2.69 21.29 3.39 10.73 1.05 21.39 0.81 32.01-0.99 11.79-2 23.28-1.38 34.28 3.77 10.1 4.73 17.38 12.06 20.91 22.79 1.96 5.94 1.91 12.07 1.47 18.21-0.25 3.53-0.06 7.01 0.59 10.49 0.49 2.65 1.62 4.92 3.48 6.89 1.4 1.48 2.69 3.08 3.99 4.65 9.92 12.05 14.48 25.79 13.04 41.42-0.32 3.51-0.35 7.02-0.26 10.54 0.05 2.21 0.37 4.39 0.85 6.55 0.83 3.75 2.49 7.08 5.05 9.93 6.78 7.57 10.2 16.61 11.74 26.49 1.68 10.81 0.68 21.52-1.27 32.18-0.48 2.64-1.15 5.26-0.68 7.95 0.8 0.36 1.33-0.17 1.85-0.48 2.61-1.52 5.19-3.11 7.78-4.65 3.02-1.8 6.08-3.51 9.4-4.71 4.48-1.61 8.93-1.67 13.43-0.1 4.24 1.48 8.09 3.62 11.17 6.86 1.78 1.88 3.38 1.95 5.63 1.03 9.69-3.98 19.67-7.05 29.99-8.91 5.96-1.07 11.94-1.97 18.02-1.77 6.7 0.22 10.23 2.88 12.13 9.32 2.32 7.86 3.5 15.94 4.38 24.07 0.6 5.54 0.68 11.1 0.59 16.66-0.06 4.18-0.27 8.34-1.35 12.4-0.31 1.18 0.02 1.86 1.08 2.36 0.96 0.45 1.92 0.91 2.83 1.46 9.15 5.5 15.23 13.23 17.1 23.91 1.19 6.81 0.66 13.5-2.05 19.93-1.72 4.09-4.37 7.45-7.99 10.03-3.7 2.64-7.71 3.49-12.06 1.92-1.21-0.44-2.17-0.35-3.19 0.41-1.44 1.09-3.07 1.85-4.7 2.62-4.5 2.12-9.06 2.24-13.46-0.07-2.7-1.42-5.23-1.55-8.22-1-6.75 1.23-12.21-1.44-16.25-6.84-3.81-5.1-4.56-10.91-3.2-17.03 0.6-2.71 1.4-5.41 2.88-7.78 0.89-1.42 0.86-2.66 0.27-4.13-1.89-4.71-2.26-9.49-0.48-14.35 2.72-7.41 8.28-11.52 15.68-13.45 2.37-0.62 4.8-0.96 7.27-1 1.69-0.03 1.75-0.07 1.64-1.81-0.5-8.51-1.79-16.89-4.14-25.09-0.63-2.2-1.37-4.36-2-6.55-0.26-0.92-0.72-1.17-1.61-0.89-7.48 2.35-14.97 4.64-22.14 7.84-1.17 0.52-1.54 1.25-1.31 2.5 0.96 5.27-0.21 10.21-2.35 15.01-0.72 1.62-1.77 2.91-3.16 3.98-4.32 3.34-9.2 5.57-14.28 7.46-7.43 2.76-15 5.06-22.62 7.22-1.55 0.44-2.2 1.11-2.54 2.72-1.4 6.71-2.7 13.45-4.58 20.05-0.61 2.15-0.36 4.39 0.04 6.57 0.83 4.43 2.28 8.67 4.01 12.83 1.75 4.22 3.59 8.41 4.85 12.82 1.49 5.21 1.79 10.4 0.37 15.71-0.87 3.22-1.36 6.55-1.93 9.85-0.33 1.89 0.02 3.76 0.64 5.55 0.45 1.31 0.99 2.59 1.56 3.86 2.34 5.18 2.85 10.52 1.4 16.03-0.08 0.32-0.15 0.64-0.25 0.95-1.2 3.62-0.59 7.2-0.09 10.86 1.03 7.53 1.71 15.1 2.94 22.6 0.04 0.24 0.1 0.48 0.17 0.76 0.98 0.29 1.69-0.4 2.45-0.76 4.95-2.33 9.95-4.56 15.24-6.02 5.11-1.41 10.29-1.82 15.53-0.86 3.68 0.67 6.16 2.8 7.55 6.26 2.41 5.99 3.53 12.24 3.68 18.65 0.3 12.35 0.35 24.7-0.48 37.03-0.78 11.59-2.09 23.11-4.49 34.49-0.08 0.4-0.21 0.79-0.28 1.19-0.12 0.7 0.23 0.98 0.9 1.16 6.88 1.78 6.87 1.79 12.1 6.17zm-129.36-123.5c-0.73 0.06-1.45 0.13-2.18 0.27-5.06 0.96-10.17 1.5-15.32 1.58-8.45 0.14-16.77-0.85-24.91-3.16-0.66-0.19-1.39-0.63-2.06 0.05l0.07-0.09-0.1 0.05c0.69 0.19 0.99 0.82 1.43 1.29 3.15 3.33 6.49 6.43 10.09 9.26 1.43 1.12 2.85 1.36 4.55 0.74 2.83-1.04 5.69-1.99 8.54-2.96 6.63-2.26 13.25-4.51 19.88-6.77 1.54-0.15 2.88-0.82 4.19-1.57-1.36 0.5-2.98 0.23-4.18 1.31zm-259.82-35.82c-0.3 2.92-0.36 5.95-0.21 8.97 0.23 4.43 0.95 8.77 2.8 12.85 2.08 4.58 5.44 7.72 10.44 8.85 2.58 0.58 5.2 0.44 7.8 0 5.98-1.01 11.69-3.01 17.42-4.94 8.15-2.73 16.41-3.31 24.9-1.92 6.52 1.07 13.03 2.29 19.62 2.89 6.75 0.61 13.34 0.23 19.83-1.97 8.24-2.79 16.79-3.36 25.42-2.94 8.34 0.41 16.51 2.13 24.73 3.47 9.03 1.48 18.07 2.88 27.23 3.22 9.92 0.37 19.78-0.06 29.44-2.6 3.04-0.8 6.1-1.08 9.22-0.95 4.87 0.19 9.51 1.49 14.15 2.79 7.96 2.24 15.93 2.45 23.97 0.47 4.44-1.09 8.88-2.16 13.39-2.98 6.52-1.19 12.77-0.86 18.81 2.35 5.14 2.73 10.7 4.44 16.44 5.51 4.65 0.86 9.27 0.89 13.79-0.71 4.79-1.7 7.7-4.97 8.53-10.1 0.51-3.18-0.01-6.19-0.97-9.16-0.7-2.17-1.58-4.29-2.42-6.41-2-5.05-2.83-10.22-1.69-15.6 0.39-1.83 1.08-3.61 1.4-5.45 1.1-6.26 0.83-12.24-2.61-17.97-3.42-5.7-4.7-12.12-4.8-18.78-0.13-8.46 1.37-16.76 2.23-25.13 1.05-10.25 0.29-20.19-3.93-29.76-3.13-7.1-5.82-14.38-7.85-21.89-3.04-11.29-4.06-22.6-0.9-34.11 1.42-5.18 1.11-10.53-0.02-15.8-1.41-6.54-4.28-12.49-7.36-18.36-2.66-5.06-5.45-10.05-7.77-15.29-3.2-7.22-4.87-14.68-4.22-22.64 0.42-5.23 0.11-10.42-1.34-15.55-2.71-9.58-7.5-18.07-13.2-26.11-1.37-1.93-2.85-3.79-4.17-5.76-2.27-3.38-3.22-7.07-2.59-11.17 0.79-5.18 1.04-10.41 0.67-15.65-0.73-10.59-6.07-17.44-16.18-20.72-0.93-0.3-1.88-0.55-2.83-0.77-6.66-1.58-13.31-1.04-19.94 0.22-9.08 1.72-18.2 3.11-27.47 3.15-8.82 0.04-17.47-0.97-25.61-4.62-7.83-3.52-15.91-4-24.22-2.39-6.66 1.29-13.14 3.32-19.72 4.91-6.31 1.52-12.66 2.53-19.17 1.61-5.11-0.72-10.08-1.98-15-3.54-10.25-3.25-20.67-3.7-31.25-2-10.64 1.71-21.17 4.08-31.95 4.88-5.4 0.4-10.77 0.37-16.13-0.55-4.69-0.8-9.19-2.28-13.67-3.81-6.1-2.08-12.31-2.34-18.63-1.45-5.51 0.77-10.93 1.97-16.29 3.4-8.6 2.29-17.1 2.18-25.59-0.6-2.79-0.91-5.66-1.58-8.51-2.31-4.86-1.25-9.62-1.11-14.46 0.45-12.09 3.9-24.34 5.44-36.87 1.88-6.06-1.72-12.12-1.29-18.06 0.85-2.92 1.05-3.6 1.85-3.65 5-0.06 3.64 0.76 7.13 2 10.53 3.06 8.42 8.36 15.29 14.74 21.42 2.12 2.04 4.28 4.04 6.31 6.18 4.34 4.57 7.09 9.92 7.84 16.26 0.33 2.75 0.82 5.49 1.42 8.2 1.3 5.88 3.38 11.43 7.25 16.17 1.67 2.04 3.68 3.71 5.63 5.45 4.46 3.97 8.92 7.94 12.69 12.61 4.52 5.61 7.13 11.93 6.63 19.23-0.52 7.62 1.51 14.54 5.23 21.08 2.11 3.7 4.54 7.18 7.08 10.59 3.42 4.59 6.95 9.1 10.18 13.82 3.46 5.04 5.9 10.5 7.24 16.49 1.38 6.16 2.16 12.39 2.75 18.65 0.76 7.97 3.28 15 8.85 21.01 6.21 6.71 10.38 14.64 12.09 23.72 0.96 5.07 1.32 10.2 1.72 15.33 0.33 4.24 0.75 8.46 1.58 12.63 1.17 5.94 3.65 11.33 6.96 16.36 1.93 2.94 3.97 5.8 5.85 8.77 3.35 5.29 5.41 11.02 5.05 17.36-0.25 4.29-0.3 8.53-0.07 12.88zm-144.72-314.75c-1.83 3.04-3.04 5.88-4.26 8.71-3.22 7.5-5.87 15.24-9.35 22.64-2.8 5.95-6.07 11.6-10.82 16.24-6.4 6.25-10.37 13.77-12.27 22.46-2.3 10.49-6.14 20.29-12.58 29-2.48 3.36-4.38 7.09-5.76 11.05-1.64 4.71-1.88 9.47 0 14.15 3.24 8.06 8.41 14.51 16.05 18.86 1.77 1.01 3.52 2.08 5.21 3.23 4.46 3.04 7.68 7.07 9.33 12.25 1.23 3.89 2.36 7.81 3.52 11.73 0.75 2.51 1.46 5.05 2.92 7.24 4 5.98 8.05 11.92 12.12 17.85 0.99 1.45 1.07 1.44 2.64 0.44 2.99-1.9 6.16-3.36 9.66-4.04 2.73-0.53 5.47-0.3 8.3 0.04 0.08-0.61 0.13-1.09 0.2-1.57 0.6-3.98 1.59-7.86 3.42-11.45 2.65-5.22 7.52-6.59 12.55-3.64 0.63 0.37 1.25 0.78 1.82 1.24 4.42 3.51 6.87 8.22 8.17 13.6 0.93 3.84 1.16 7.76 1.09 11.69-0.02 1.28 0.4 1.87 1.53 2.38 3.28 1.48 6.33 3.41 9.36 5.34 3.38 2.15 6.73 4.34 10.12 6.47 1.01 0.63 2.02 1.31 3.21 1.6 0.36-0.52 0.62-0.93 0.92-1.32 4.07-5.38 9.5-7.54 16.12-6.55 5.02 0.75 8.85 3.63 12.18 7.26 2.84 3.09 5.08 6.61 6.96 10.34 3.93 7.81 6.8 15.93 6.69 24.82-0.06 4.91-0.48 9.79-1.48 14.61-1.47 7.13-4.54 13.43-9.71 18.64-2.69 2.71-5.95 3.97-9.74 3.79-5.31-0.25-9.8-2.24-13.4-6.22-3.93-4.35-7.01-9.23-9.29-14.62-2.2-5.19-3.67-10.6-4.75-16.4-9.72 5.44-20.43 7.39-31.06 9.95 0.57 1.57 1.38 2.79 2.13 4.05 2.62 4.43 5.29 8.83 7.86 13.29 4 6.96 7.37 14.21 9.74 21.9 0.72 2.35 1.35 4.71 1.38 7.19 0.09 6.62 1.56 12.94 4.16 19.02 3.21 7.48 7.56 14.3 12.33 20.84 6.42 8.82 10.35 18.66 12.47 29.3 1.06 5.28 1.72 10.64 3.3 15.81 0.46 1.49 0.94 2.97 1.92 4.21 0.81 1.03 1.27 1.09 2.16 0.13 2.6-2.83 5.33-5.57 7.33-8.87 1.74-2.88 4.18-4.71 7.32-5.79 2.7-0.93 5.33-2.05 7.91-3.3 2.93-1.42 5.36-3.38 7.15-6.16 1.46-2.27 3.03-4.46 4.55-6.69 0.78-1.15 1.56-2.3 2.37-3.43 5.54-7.78 11.43-15.19 20.68-18.73 0.1-0.9-0.41-1.38-0.74-1.93-1.04-1.76-1.97-3.59-2.6-5.54-2.84-8.79-3.74-17.72-1.71-26.81 1.23-5.51 0.79-10.86-1.22-16.12-1.5-3.92-3.59-7.52-5.9-10.99-2.62-3.95-5.28-7.88-7.99-11.77-3.48-5.01-5.1-10.56-4.86-16.63 0.16-3.92 0.42-7.83 0.75-11.74 0.22-2.64 0-5.22-0.56-7.79-1.39-6.39-4.61-11.83-8.75-16.78-1.84-2.19-3.75-4.32-5.6-6.5-3.11-3.67-5.26-7.83-6.54-12.49-1.47-5.32-2.1-10.73-2.25-16.22-0.06-2.12-0.05-4.25-0.32-6.36-0.96-7.36-3.78-13.99-7.89-20.11-3.02-4.48-6.41-8.67-9.85-12.83-2.45-2.96-4.97-5.87-7.29-8.93-4.25-5.59-6.88-11.84-7.2-18.94-0.16-3.67-0.33-7.35-0.5-11.02-0.38-8.35-3.28-15.25-10.41-20.33-6.27-4.48-11.42-10.26-16.2-16.31-2.23-2.82-3.71-5.95-4.17-9.53-0.29-2.19-0.59-4.37-0.64-6.58-0.19-7.3-2.71-13.73-7.53-19.21-1.73-1.96-3.58-3.82-5.44-5.65-3.5-3.44-7.11-6.76-10.43-10.38-3.9-4.25-6.62-9.09-7.93-14.72-0.13-0.63-0.31-1.25-0.61-2.37zm106.88 494.27c0.05 0.17 0.09 0.34 0.14 0.51 0.46 0 0.93-0.01 1.39 0 4.66 0.1 9.29-0.5 13.96-0.43 13.49 0.19 26.96-0.73 40.45-0.45 1.43 0.03 2.5-0.42 3.41-1.51 2.41-2.88 4.84-5.75 7.33-8.56 3.2-3.61 6.65-6.99 10.16-10.3 0.48-0.45 0.97-0.95 1.71-0.52 0.67 0.39 0.71 1.06 0.65 1.73-0.08 0.91-0.38 1.76-0.76 2.57-3.64 7.72-8.15 14.9-13.66 21.43-2.58 3.06-5.16 6.12-8.03 8.92-0.93 0.91-1.07 1.66-0.23 2.72 1.11 1.41 2.15 2.87 3.39 4.18 5 5.31 11.32 8.51 17.91 11.27 8.08 3.38 16.61 4.64 25.27 5.25 1.38 0.1 2.79 0.09 4.17-0.01 1.72-0.12 2.93-0.75 3.65-2.64 1.56-4.12 3.48-8.1 5.23-12.15 5.41-12.52 10.81-25.04 16.18-37.57 0.49-1.15 1.21-2.13 2-3.06 0.42-0.5 0.95-1 1.68-0.63 0.69 0.35 0.77 1.03 0.67 1.7-0.21 1.29-0.47 2.56-0.71 3.85-0.61 3.2-1.24 6.4-1.81 9.61-0.27 1.54-0.15 1.64 1.42 1.72 0.49 0.03 0.98 0.01 1.47-0.01 5.47-0.15 10.94-0.11 16.41-0.33 9.88-0.4 19.77-0.14 29.66-0.56 7.92-0.33 15.84-0.04 23.77-0.44 8.24-0.41 16.5-0.19 24.75-0.53 9.63-0.39 19.28-0.19 28.92-0.41 11.6-0.26 23.2-0.63 34.81-0.67 3.35-0.01 6.71-0.1 10.06-0.03 1.82 0.04 3.25-0.45 4.65-1.7 4.5-4.03 8.97-8.1 13.66-11.91 7.86-6.38 15.69-12.81 23.51-19.24 5.17-4.25 10.32-8.54 15.45-12.84 0.56-0.47 1.41-0.84 1.35-1.94-2.3 0-4.5 0.04-6.71-0.02-1.01-0.03-1.64 0.35-2.26 1.13-1.12 1.4-2.17 2.86-3.56 4.04-5.67 4.79-12.04 8.39-18.92 11.13-7.82 3.12-15.81 5.74-23.83 8.28-7.3 2.31-14.59 4.66-21.88 7.02-0.41 0.13-0.76 0.16-1.18 0.05-6.55-1.64-12.22-4.63-15.94-10.51-0.95-1.5-1.93-3.06-2.08-4.92-0.27-3.4 0.13-6.68 1.72-9.76 0.45-0.87 0.84-1.78 1.15-2.7 0.43-1.29 0.1-1.74-1.21-1.53-0.98 0.16-1.95 0.2-2.93 0.22-8.82 0.16-17.64 0.05-26.47 0.41-10.94 0.44-21.9 0.12-32.85 0.53-10.61 0.4-21.24-0.01-31.87 0.45-10.36 0.45-20.75 0.04-31.13 0.53-9.14 0.42-18.3 0.2-27.45 0.43-12.82 0.32-25.66 0.48-38.49 0.62-4.01 0.04-8.01 0.04-12.02 0.03-1.6 0-2.99 0.41-4.32 1.4-17.91 13.42-35.84 26.8-53.78 40.18-2.67 1.99-5.35 3.98-8.03 5.97zm204.29-106.89c-1.16 0-2.03 0.01-2.89 0-28.36-0.31-56.73 0.12-85.1-0.37-19.45-0.34-38.91-0.3-58.35 0.3-2.34 0.07-2.28 0.04-1.9 2.38 1.37 8.61 2.78 17.21 4 25.83 1.11 7.91 2.5 15.77 4.07 23.59 0.43 2.15 0.5 2.22 2.74 2.19 5.14-0.07 10.28-0.13 15.43-0.31 11.59-0.42 23.2-0.01 34.81-0.51 10.45-0.45 20.91-0.04 31.37-0.48 11.26-0.47 22.55-0.04 33.82-0.5 11.35-0.46 22.71-0.06 34.07-0.48 13.39-0.49 26.8 0.09 40.2-0.52 4.73-0.21 9.49-0.19 14.22-0.03 2.2 0.08 3.44-0.73 4.52-2.53 4.57-7.64 9.55-15.02 14.98-22.09 5.03-6.55 10.19-13 16.38-18.51 3.11-2.77 6.38-5.35 10.79-5.86 2.89-0.34 5.71 0.1 8.5 0.61 4.47 0.83 8.56 2.63 12.18 5.44 1.66 1.29 1.71 1.23 3.41 0.19 2.02-1.24 4.08-2.42 6.05-3.72 2.01-1.32 4.23-2.32 6.12-3.87-0.38-0.43-0.72-0.33-1.02-0.34-12.18-0.13-24.35-0.11-36.53-0.3-20.27-0.32-40.56-0.09-60.83-0.13-1.89 0-3.74 0.16-5.6 0.43-1.22 0.18-1.48 0.61-1.04 1.83 0.48 1.32 1.4 2.39 2.09 3.6 0.68 1.2 1.58 1.64 2.99 1.55 5.79-0.34 11.59 0.13 17.39-0.43 3.57-0.34 7.17 0.07 10.76 0.29 2.27 0.14 2.46 0.25 2.5 2.59 0.06 3.26-0.14 6.53 0.33 9.79 0.14 0.96 0.08 1.96 0.04 2.94-0.07 1.76-0.59 2.25-2.41 2.35-0.49 0.03-0.98 0.01-1.47 0.01-8.26 0.02-16.52 0.06-24.78 0.03-1.41-0.01-2.51 0.34-3.45 1.43-2.91 3.42-6.12 6.58-9.15 9.9-3.91 4.3-8.17 8.22-12.6 11.97-3.66 3.1-7.44 3-11.12 0.01-4.89-3.97-9.38-8.38-13.54-13.12-2.75-3.13-5.44-6.3-7.93-9.65-0.87-1.17-1.96-1.66-3.39-1.47-1.05 0.14-2.1 0.35-3.15 0.37-8.74 0.2-17.48 0.36-26.22 0.52-2.62 0.05-5.23 0.09-7.85 0.05-1.64-0.03-2.22-0.58-2.38-2.17-0.37-3.73-0.76-7.46-1.02-11.2-0.18-2.58 0.4-3.23 3.04-3.24 6.05-0.01 12.08-0.41 18.12-0.51 7.28-0.13 14.55-0.08 21.83-0.09 1.35 0 2.69-0.03 3.52-1.26 1.33-1.91 2.35-4.02 3.45-6.5zm-338.82-81.92c-0.5 0.26-0.53 0.76-0.63 1.23-0.51 2.31-1.03 4.62-1.54 6.93-0.11 0.49-0.24 0.99-0.8 1.11-0.7 0.14-1.01-0.32-1.26-0.89-0.94-2.13-1.57-4.34-1.22-6.66 0.84-5.5 2.18-10.89 4.36-16.03 0.39-0.91 0.88-1.75 1.67-2.39 0.93-0.75 1.97-0.73 3.01-0.31 1 0.41 1.11 1.27 1.14 2.23 0.04 1.44-0.49 2.72-0.99 4.01-1.51 3.91-1.52 3.9 1.63 6.62 2.36 2.04 2.61 2.01 4.27-0.76 0.37-0.63 0.69-1.3 0.93-1.99 0.89-2.64 0.54-5.15-0.88-7.53-4.02-6.78-10.39-9.59-17.83-10.67-5.66-0.82-11.25 0.02-16.85 0.67-3.76 0.44-4.4 0.1-5.37-3.5-0.11-0.39-0.18-0.8-0.26-1.2-0.98-4.9-0.31-9.77 0.3-14.64 0.85-6.81 2.37-13.51 3.75-20.22 0.94-4.57 2.25-9.03 4.21-13.28 1.6-3.47 4.21-5.44 8.09-5.9 4.03-0.47 8.03-0.18 11.98 0.37 8.17 1.13 16.27 2.68 24.3 4.57 5.01 1.18 9.98 2.47 14.92 3.92 1.84 0.54 1.99 0.45 2.88-1.23 1.09-2.04 1.77-4.2 1.95-6.53 0.21-2.77-0.11-3.24-2.86-3.82-4.39-0.93-8.77-1.91-13.18-2.79-10.24-2.04-20.36-4.81-30.79-5.85-6.37-0.64-12.74-0.49-19.04 0.78-2.52 0.51-4.54 1.8-5.76 4.16-1.73 3.34-3.42 6.68-4.67 10.24-2.54 7.25-4.56 14.65-6.45 22.09-2.4 9.47-4.05 18.99-3.44 28.83 0.26 4.28-1.05 8.23-3.54 11.75-2.12 3.01-4.28 5.98-6.36 9.02-4.39 6.41-4.72 13.21-1.88 20.3 0.89 2.22 2.46 3.63 4.87 3.99 1.38 0.21 1.61 0.06 1.6-1.32-0.04-4.62 1.82-8.56 4.21-12.34 0.36-0.57 0.71-1.19 1.51-0.99 0.91 0.22 1.32 0.9 1.3 1.83-0.02 0.74-0.08 1.47-0.05 2.21 0.29 7.82 3.99 12.8 11.6 14.64 1.19 0.29 2.4 0.52 3.61 0.69 3.07 0.45 3.43 0.02 2.47-2.87-0.9-2.71-1.93-5.39-2.34-8.23-0.27-1.88-0.32-3.76 0.57-5.52 0.41-0.81 0.95-1.76 1.92-1.66 0.95 0.09 0.99 1.19 1.16 1.96 0.74 3.41 2.41 6.36 4.26 9.29 3.9 6.16 15.45 7.06 20.63-0.54 2.81-4.1 2.16-11.16-1.11-13.78zm331.98 49.34c-0.96 0.31-1.47 0.98-2.08 1.51-5.9 5.17-11.87 10.27-17.65 15.57-2.68 2.46-5.38 3.07-8.72 1.73-3.33-1.34-6.75-2.43-10.08-3.77-11.89-4.78-23.57-10.04-35.19-15.43-0.88-0.41-1.69-1.05-2.76-0.77-3.48 0.92-6.8 0.16-10.09-0.92-6.05-1.97-12.11-3.91-18.32-5.33-7.8-1.78-15.51-1.7-22.59 2.39-5.25 3.03-10.67 3.79-16.5 2.91-1.1-0.16-2.24-0.46-3.41-0.02 0.26 1.74 0.51 3.44 0.75 5.13 1.01 7.02 1.78 14.08 3.32 21.02 0.68 3.04 0.65 3.07 3.7 3.04 28.36-0.35 56.73-0.27 85.09-0.22 14.06 0.02 28.11 0.52 42.17 0.21 7.03-0.15 14.05-0.65 21.07 0 1.05 0.1 1.66-0.32 2.16-1.2 1.46-2.56 2.73-5.2 3.75-7.96 0.37-0.99 0.29-1.61-0.85-2.09-3.22-1.37-5.75-3.68-8.11-6.21-2.57-2.78-4.44-5.99-5.66-9.59zm232.02-99.07c-4.83 3.44-7.68 7.7-8.13 13.37-0.35 4.33 0.65 8.3 3.6 11.6 2.61 2.91 5.77 3.58 9.32 2.05 2.2-0.95 4.16-2.26 5.89-3.92 3.26-3.15 5.26-7.04 6.57-11.32 0.31-1.01 0.59-2.04 0.9-3.05 0.21-0.68 0.66-1.18 1.41-1.11 0.62 0.05 0.99 0.5 1.18 1.1 0.63 1.96 1.11 3.91 0.8 6.01-0.62 4.09-2.57 7.53-4.94 10.81-1.72 2.38-1.47 2.99 1.41 3.58 0.48 0.1 0.96 0.21 1.45 0.24 4.9 0.3 9.59-0.36 13.01-4.27 2.93-3.36 4.9-7.34 5.81-11.75 0.37-1.76 0.36-3.57 0.32-5.38-0.02-0.96 0.39-1.78 1.48-1.96 1.14-0.19 1.63 0.49 1.84 1.49 0.14 0.64 0.33 1.26 0.47 1.9 0.64 2.9-0.04 5.68-0.74 8.46-0.53 2.1-1.33 4.15-1.68 6.61 3.24-1.27 5.2-3.5 6.66-6.19 2.02-3.74 3.06-7.83 2.86-12.04-0.49-10.42-4.67-18.92-13.74-24.61-0.97-0.61-1.94-1.26-2.99-1.68-2.17-0.88-2.83-2.43-2.63-4.67 0.25-2.77 0.34-5.55 0.41-8.33 0.28-12.27 0.27-24.53-1.94-36.66-0.6-3.3-1.45-6.52-2.8-9.62-1.03-2.37-2.67-3.77-5.32-4.11-1.88-0.24-3.74-0.4-5.62-0.32-8.79 0.37-17.33 2.09-25.65 4.96-4.71 1.62-9.36 3.41-13.92 5.42-2.3 1.01-2.9 0.87-0.97 3.28 0.91 1.14 1.64 2.44 2.4 3.69 0.71 1.18 1.08 2.98 2.09 3.46 1.21 0.57 2.68-0.74 4.03-1.26 8.61-3.27 17.56-5.07 26.64-6.29 2.27-0.31 4.57-0.32 6.85 0 1.09 0.16 1.23 0.53 0.57 1.43-0.89 1.22-2.08 2.09-3.48 2.61-1.13 0.42-1.22 0.98-0.72 2.04 1.56 3.26 2.42 6.75 3.22 10.26 0.74 3.27 1.28 6.58 1.65 9.9 0.72 6.42 1.25 12.86 0.67 19.33-0.09 1.05-0.26 2.12-0.56 3.12-0.28 0.92-1.04 1.49-2.03 1.51-0.87 0.01-1.23-0.67-1.52-1.38-0.16-0.38-0.34-0.74-0.54-1.1-0.9-1.6-1.35-1.81-3.18-1.29-1.65 0.47-3.25 1.08-4.9 1.56-8.93 2.63-11.87 11.64-11.3 19.02 1.02-0.54 1.99-1.13 3.02-1.56 1.82-0.75 1.84-0.7 1.47-2.69-0.12-0.64-0.33-1.27-0.39-1.92-0.09-0.97-0.13-1.96-0.09-2.93 0.03-0.79 0.43-1.41 1.29-1.57 0.79-0.15 1.48 0.06 1.94 0.74 0.32 0.47 0.55 1 0.8 1.51 1.31 2.75 2.19 5.64 2.61 8.65 0.84 5.94-0.35 11.54-3.11 16.83-0.32 0.62-0.66 1.21-1.46 0.97-0.75-0.23-0.88-0.91-0.8-1.61 0.09-0.73 0.23-1.45 0.36-2.18 0.65-3.44 1.1-6.91 0.15-10.74zm-179.62 99.37c-2.23 7.77-3.26 9.35-9.6 14.76-0.64 0.55-0.68 0.99-0.34 1.67 1.59 3.13 3.2 6.25 4.72 9.41 0.63 1.32 1.58 1.68 2.95 1.6 2.28-0.12 4.58-0.15 6.87-0.15 35.24-0.02 70.48-0.02 105.72-0.03 0.65 0 1.31 0.03 1.96-0.01 2.72-0.18 3.42-1.06 3.08-3.79-0.64-5.1-1.26-10.21-1.91-15.31-0.32-2.54-0.69-5.08-1.04-7.68-6.22 3.12-8.83 3.86-13.35 4.25-7.35 0.64-14.09-1.16-20.4-4.81-2.19-1.27-4.39-2.52-6.81-3.31-1.42-0.46-2.74-0.49-4.24 0.1-8.42 3.33-16.89 6.54-25.36 9.76-7.55 2.87-15.16 5.57-23.07 7.34-1.56 0.35-2.92 0.15-4.2-0.7-1.02-0.68-2.02-1.4-2.97-2.16-2.94-2.35-5.57-5.05-8.31-7.63-1.13-1.06-2.3-2.05-3.7-3.31zm-198.82 35.8c-8.36 6.53-16.21 13.28-24.08 20.01-5.02 4.3-9.99 8.66-15.03 12.93-6.72 5.7-13.44 11.41-20.27 16.97-1.98 1.61-2.57 3.4-2.17 5.77 1.07 6.42 2.12 12.85 3.15 19.28 0.93 5.79 1.79 11.58 2.75 17.37 0.39 2.35 0.59 4.76 1.27 7.02 0.64-0.04 0.92-0.34 1.24-0.59l9.87-7.65c7.48-5.8 14.98-11.58 22.45-17.4 9.15-7.11 18.23-14.33 27.65-21.07 1.48-1.06 1.96-2.05 1.56-3.87-1.02-4.61-1.9-9.26-2.65-13.92-1.59-9.97-3.01-19.96-4.63-29.93-0.25-1.56 0-3.29-1.11-4.92zm269.17 21.68c1.27-1.05 2.59-2.12 3.88-3.23 2.83-2.46 5.66-4.94 8.46-7.44 1.09-0.97 1.08-1.15-0.23-1.85-4.07-2.18-8.3-3.76-12.99-4.03-1.78-0.1-3.12 0.31-4.33 1.65-3.43 3.83-6.96 7.58-10.44 11.37-5.79 6.33-11.2 12.98-16.43 19.78-5.53 7.19-10.66 14.66-15.55 22.3-0.79 1.24-1.53 2.53-3.06 3.05-0.86 0.29-0.89 1.04-0.95 1.8-0.17 2.55 1.16 4.57 2.43 6.55 2.93 4.56 7.43 6.96 12.38 8.74 1.77 0.64 2.94 0.81 4.41-1.08 2.64-3.39 6.52-5.41 10.38-7.21 7.55-3.52 15.24-6.71 22.94-9.9 4.98-2.06 10.08-3.86 14.85-6.39 8.15-4.33 13.91-10.48 14.96-20.13 0.3-2.76 0.15-5.44-0.59-8.15-4.82 2.3-15.27 10.34-16.26 12.54 1.72 0.52 3.46 0.97 5.14 1.58 1.27 0.46 1.4 1.61 0.34 2.43-0.79 0.62-1.78 0.83-2.75 0.93-3.87 0.42-7.48-0.41-10.81-2.38-3.52-2.08-6.23-4.99-8.48-8.36-3.74-5.61-4.58-11.58-2.19-17.94 0.56-1.48 1.34-2.81 2.52-3.86 0.78-0.69 1.67-0.98 2.69-0.37 0.91 0.55 0.74 1.38 0.65 2.18-0.06 0.56-0.25 1.11-0.39 1.66-0.49 2.01-0.84 4.01-0.58 5.76zm-319.06-160.28c0-1.14 0.11-2.3-0.02-3.43-1.24-11.15-5.31-21.15-12.2-30-2.45-3.15-5.44-5.63-9.12-7.23-6.34-2.76-13.97-0.94-18.21 4.35-1.49 1.86-1.52 1.89 0.24 3.53 3.97 3.7 5.78 8.41 6.49 13.64 0.22 1.63 0.12 3.26-0.43 4.84-1.99 5.68-5.74 9.8-11.09 12.47-1.86 0.93-2.08 1.05-1.63 3.15 0.55 2.55 1.17 5.1 1.92 7.59 2.46 8.16 6.24 15.58 12.27 21.76 3.47 3.56 7.72 5.04 12.57 5.11 3.18 0.04 5.87-1.07 8.17-3.3 4.65-4.52 7.53-10.02 9.16-16.22 1.41-5.32 1.62-10.8 1.88-16.26zm-12.9 184.89c1.04-0.87 1.89-1.58 2.74-2.3 18.9-16.02 37.77-32.07 56.73-48.01 1.96-1.65 2.6-3.29 2.06-5.73-0.77-3.5-1.31-7.06-1.94-10.59-0.94-5.3-1.85-10.61-2.8-15.91-0.32-1.77-0.46-1.83-2.23-1.43-1.52 0.34-2.97 0.88-4.37 1.55-5.83 2.8-10.78 6.76-15.14 11.49-3.99 4.34-7.58 9-11.17 13.67-3.31 4.31-7.34 7.63-12.72 9.1-2.57 0.7-4.44 2.38-5.64 4.76-1.14 2.26-2.31 4.51-3.37 6.8-1.04 2.26-2.43 4.25-4.25 5.94-0.48 0.44-0.95 0.9-1.43 1.34-0.83 0.78-1.13 1.6-0.89 2.83 0.54 2.88 0.83 5.82 1.25 8.72 0.87 5.86 1.89 11.69 3.17 17.77zm-82.77-224.61c-0.71-1.49-1.36-2.63-1.81-3.83-0.37-0.98-0.17-1.92 0.83-2.57 0.94-0.61 1.75-0.3 2.46 0.32 0.67 0.59 1.32 1.25 1.81 1.98 4.47 6.68 6 13.88 3.63 21.69-1.39 4.58-3.93 8.41-7.75 11.34-2.09 1.61-4.47 1.89-6.98 1.46-1.03-0.18-1.8-0.74-1.98-1.88-0.18-1.16 0.4-1.85 1.38-2.32 0.47-0.22 1.22-0.08 1.23-0.91-4.08-0.79-8.27-0.99-12.19-2.54-0.93-0.37-1.4 0.03-1.36 1.02 0.05 1.06 0.12 2.12 0.18 3.18 0.39 6.33 4.43 11.11 10.66 12.37 9.46 1.92 18.99 1.97 28.54 0.73 7.71-1 15.17-3.17 22.64-5.24 4.2-1.17 8.14-2.98 11.47-5.86 5.2-4.5 5.65-10.62 1.18-15.79-1.73-2.01-3.89-3.48-6.2-4.74-5.15-2.83-10.3-5.67-15.47-8.46-8.05-4.36-16.29-8.29-25.11-10.88-3.78-1.11-7.62-1.86-11.59-1.67-4.9 0.24-8.49 2.91-9.79 7.16-0.31 1.02-0.35 1.68 0.87 2.01 1.89 0.52 3.76 1.11 5.62 1.72 2.4 0.79 4.81 1.52 7.73 1.71zm460.96 14.94c0.94 0 1.72-0.19 2.5-0.41 2.67-0.75 5.37-1.41 8.01-2.23 6.77-2.12 13.49-4.37 19.91-7.47 3.67-1.77 5.69-4.48 6.12-8.47 0.06-0.57 0.14-1.14 0.18-1.7 0.91-11.5-5.14-24.87-19.9-31.04-2.18-0.91-4.41-1.12-6.7-0.48-1.34 0.37-2.71 0.62-4.03 1.02-6.73 2.05-12.56 5.81-18.32 9.68-1.7 1.14-1.67 1.19-1.13 3.17 1.37 4.98 3.49 9.65 5.7 14.3 3.57 7.52 6.98 15.1 7.66 23.63zm-144.75 145.06c-0.89-0.25-1.17 0.43-1.38 1.18-0.6 2.13-1.49 4.15-2.38 6.17-3.75 8.55-8.36 16.63-13.57 24.37-1.71 2.53-1.89 2.17 0.34 4.41 0.63 0.64 1.23 1.31 1.85 1.96 5.7 5.97 11.34 12 17.46 17.55 1.79 1.62 1.82 1.61 3.54 0.02 6.73-6.23 12.67-13.2 18.77-20.02 0.77-0.86 0.94-1.53 0.32-2.58-4.29-7.27-7.56-15.02-10.86-22.76-1.34-3.15-2.64-6.33-3.93-9.51-0.37-0.91-0.79-1.23-1.84-0.88-2.45 0.83-4.97 0.86-7.49 0.22-0.23-0.05-0.48-0.07-0.83-0.13zm177.25 30.49c3.5-3.51 7.42-4.56 11.73-4.36 1.15 0.05 1.37-0.49 1.34-1.46-0.07-2.94 0.04-5.89-0.17-8.82-0.23-3.25-0.64-6.5-1.62-9.64-0.75-2.38-2.22-3.86-4.77-4.37-2.58-0.52-5.05-0.15-7.51 0.47-9.86 2.53-19.17 6.48-28.19 11.11-16.76 8.61-31.65 19.89-45.6 32.45-0.24 0.22-0.48 0.44-0.71 0.67-0.55 0.55-0.59 1.14-0.08 1.74 1.3 1.56 2.61 3.11 3.88 4.63 0.95-0.31 1.43-1.01 2.01-1.57 4.78-4.59 9.87-8.82 15.3-12.64 12.59-8.86 26.37-15.32 40.79-20.54 2.07-0.75 4.19-1.44 5.97-2.78 1.05-0.79 1.88-0.64 2.79 0.25 1.88 1.82 3.06 4.02 3.66 6.53 0.6 2.54 0.83 5.14 1.18 8.33zm-372.26 183.38c-5.11 0.79-8.4 3.29-10.52 7.37-0.54 1.05-0.45 2.26-0.02 3.35 0.91 2.27 1.83 4.54 2.88 6.75 0.84 1.78 2 3.38 3.53 4.66 2.19 1.84 4.18 1.89 6.43 0.18 0.71-0.55 1.38-1.15 2.05-1.75 8.37-7.52 15.61-16.04 22.18-25.15 10.04-13.93 19-28.56 27.8-43.3 0.16-0.28 0.32-0.56 0.15-1.11-2.81-0.93-5.74-1.89-8.67-2.87-0.89-0.3-1.34 0.1-1.69 0.9-0.82 1.87-1.67 3.73-2.79 5.45-4.42 6.78-8.76 13.6-13.26 20.32-6.19 9.25-12.82 18.16-20.76 26.02-2.38 2.36-4.87 4.6-7.53 6.65-0.85 0.66-1.79 0.89-2.68 0.12-0.86-0.75-0.53-1.59-0.04-2.42 0.91-1.53 1.77-3.1 2.94-5.17zm402.99-86.81c4.79 1.82 9.16 3.33 13.66 4.48 0.97 0.25 1.73-0.1 2.49-0.66 9.81-7.19 18-15.84 23.86-26.57 2.04-3.73 3.65-7.65 4.77-11.76 0.48-1.77 0.08-2.51-1.57-3.28-0.69-0.32-1.41-0.44-2.14-0.44-1.55-0.01-3.11-0.06-4.65 0.04-6.27 0.4-11.39 2.93-15.38 7.91-3.55 4.44-6.14 9.42-8.77 14.4-3.1 5.87-6.44 11.56-12.27 15.88zm-240.2-149.44c-2.03-0.5-3.98-0.97-5.93-1.47-4.11-1.05-8.06-2.66-12.16-3.78-4.86-1.32-9.59-1.45-14.45 0.08-5.37 1.69-10.84 3.03-16.28 4.51-0.6 0.16-1.24 0.19-1.74 0.85 8.96 4.08 17.76 8.37 26.87 11.97 2.12 0.84 4.3 1.55 6.46 2.29 1.28 0.44 2.3 0.18 3.28-0.88 3.78-4.08 8.02-7.7 12.04-11.54 0.64-0.6 1.43-1.09 1.91-2.03zm-255.41-147.78c0-1.8 0.06-3.19-0.01-4.57-0.33-6.13-1.49-12-5.29-17.06-1.65-2.2-3.64-3.99-6.09-5.23-3.7-1.86-7.36-0.87-9.64 2.57-0.54 0.81-0.99 1.7-1.37 2.6-1.24 2.95-2.06 6.03-2.58 9.18-0.37 2.23-0.3 2.35 2 3.06 4.46 1.36 8.86 2.86 13.18 4.63 3.24 1.32 6.38 2.88 9.8 4.82zm460.75 271.29c2.81-1.41 5.27-2.67 7.93-3.5 1.38-0.43 3.27 0.05 4.07-1.21 0.73-1.16 0.71-2.81 0.96-4.25 1.66-9.4 3.02-18.85 3.33-28.41 0.07-2.12-0.38-2.75-2.39-3.3-1.47-0.4-2.9-0.29-4.3 0.37-1.12 0.53-2.06 1.31-3.02 2.07-1.17 0.93-1.63 2.03-1.69 3.57-0.26 6.86-1.1 13.66-2.3 20.41-0.81 4.65-1.68 9.28-2.59 14.25zm-189.17-121.4c1.36 3.54 3.16 6.12 5.25 8.52 1.99 2.29 4.51 3.71 7.45 4.45 5.14 1.31 10.18 0.9 15.16-0.8 2.1-0.72 3.74-1.99 4.96-3.8 2.35-3.47 3.36-7.39 3.76-11.49 0.01-0.12-0.16-0.27-0.31-0.51-11.75 2.81-23.65 4.61-36.27 3.63zm207.41 179.76c1.23-0.2 2.86-0.37 4.44-0.74 6.72-1.58 12.43-5.2 18.03-9.02 0.55-0.38 0.95-0.89 1.24-1.49 0.34-0.71 0.32-1.26-0.65-1.37-0.81-0.09-1.62-0.18-2.42-0.33-4.42-0.84-8.62-2.4-12.77-4.1-0.89-0.37-1.75-0.76-2.78-0.15-3.64 2.19-7.26 4.39-10.16 7.57-1.33 1.46-2.36 3.1-3.14 4.92-0.51 1.18-0.29 1.96 0.86 2.63 2.16 1.27 4.49 1.87 7.35 2.08zm-46.95-124.56c-3.4 2.16-6.56 4.16-9.71 6.17-1.41 0.89-1.42 0.9-0.68 2.49 1.58 3.38 2.32 6.92 2.35 10.66 0.02 2.79-0.18 5.54-0.72 8.27-0.18 0.92 0.27 1.38 1 1.18 2.59-0.71 5.2 0.48 7.78-0.21 0.68-0.18 1.47-0.04 2.19 0.03 2.24 0.23 2.42 0.09 2.39-2.06-0.01-0.33-0.01-0.66-0.05-0.98-0.63-4.68-1.2-9.36-1.91-14.03-0.58-3.76-1.3-7.52-2.64-11.52zm57.73 95.83c-0.73 2.3-1.17 4.35-1.22 6.48-0.02 0.8 0.14 1.38 1.06 1.64 3.76 1.06 7.49 2.18 11.24 3.26 0.83 0.24 1.69 0.43 2.63 0.16 0-0.78 0.02-1.42 0-2.06-0.05-1.38 0.29-2.97-0.29-4.08-0.62-1.2-2.52-0.82-3.75-1.44-0.43-0.22-0.9-0.37-1.35-0.55-2.7-1.11-5.41-2.22-8.32-3.41zm-401.74 61.26c-0.7-2.57-1.32-4.76-1.87-6.96-0.28-1.11-0.94-1.66-2.04-1.73-3.01-0.2-5.6 0.67-7.61 3-0.39 0.45-0.64 0.97-0.57 1.56 0.38 3.08 0.88 6.14 1.65 9.57 2.56-3.96 6.01-5.43 10.44-5.44zm429.11-110.43c3.61-0.06 8.7-3.83 9.71-7.27 0.42-1.44 0.56-2.99-0.69-4.12-1.19-1.08-2.66-1.08-4.16-0.62-0.64 0.2-1.18 0.55-1.68 0.98-2.61 2.25-4.45 4.97-5.25 8.35-0.5 2.14-0.06 2.72 2.07 2.68zm-467.25 127.39c0.02-0.55-0.35-2.36-0.7-3.1-1.07-2.31-2.7-2.67-4.62-1-0.81 0.71-1.41 1.58-1.82 2.56-1.1 2.63-1.37 5.34-0.53 8.09 0.41 1.34 1.09 2.54 2.22 3.43 1.2 0.94 2.26 0.83 3.11-0.42 0.45-0.66 0.74-1.44 1.05-2.18 0.94-2.29 0.95-4.76 1.29-7.38zm427.61-154.16c0-3.14-0.01-5.99 0-8.83 0-0.77-0.26-1.2-1.11-1.25-3.85-0.23-6.91 1.59-9.85 3.73-0.17 0.12-0.28 0.41-0.3 0.64-0.23 2.32-0.3 4.64-0.16 7.44 3.57-2.94 7.23-3.26 11.42-1.73zm-11.27-13.27c0.42 0.23 0.64 0.09 0.83-0.05 2.81-2.11 5.84-3.56 9.47-3.29 0.81 0.06 0.97-0.35 0.97-1.02-0.01-1.47-0.02-2.93 0.01-4.4 0.02-1.06-0.52-1.42-1.51-1.43-3.69-0.03-6.83 1.31-9.49 3.83-0.49 0.46-0.84 1-0.77 1.72 0.17 1.57 0.33 3.16 0.49 4.64zm10.99 18.75c0.37-1.09 0.15-2.08 0.22-3.04s-0.34-1.47-1.26-1.77c-2.33-0.75-4.67-0.99-6.87 0.19-3.41 1.84-4.03 2.4-3.34 6.71 6.53-3.79 6.57-3.79 11.25-2.09zm-396.62 155.66c0.72-0.81 1.24-1.42 1.78-2 2.32-2.49 4.96-4.46 8.35-5.21 1.69-0.38 1.73-0.44 1.33-1.98-0.3-1.14-0.8-1.8-2.16-1.72-1.6 0.1-3.03 0.54-4.34 1.42-1.91 1.28-3.48 2.92-4.98 4.65-0.48 0.55-0.66 1.11-0.55 1.78 0.14 0.92 0.34 1.84 0.57 3.06zm385.58-169.04c0.4-0.02 0.59 0.03 0.7-0.05 2.99-1.91 6.08-3.51 9.8-3.15 0.76 0.07 1.03-0.36 1.07-1 0.04-0.57 0.07-1.14 0.04-1.71-0.07-1.66-0.17-1.74-1.87-1.81-3.68-0.13-6.5 1.81-9.3 3.82-0.37 0.27-0.45 0.65-0.45 1.07 0.02 0.95 0.01 1.89 0.01 2.83zm-386.37 163.41c3.19-3.25 6.17-6.81 11.28-6.27-0.31-2.87-0.4-2.98-2.71-2.78-3.36 0.29-5.9 2.03-8.15 4.46-1.32 1.42-1.45 2.74-0.42 4.59zm-1.49-8.59c2.84-3.62 6.16-5.91 10.76-5.51-0.41-3.15-0.47-3.17-3.07-2.99-3.28 0.22-5.62 1.89-7.39 4.56-0.79 1.16-1.18 2.3-0.3 3.94zm0.61 3.97c3.01-3.7 6.61-5.64 11.16-5.56-0.58-3.1-0.76-3.25-3.62-2.81-3 0.46-5.07 2.36-6.99 4.54-0.97 1.08-1.29 2.13-0.55 3.83zm296.48-231.45c-0.43-0.3-0.82-0.17-1.16 0.02-0.2 0.11-0.64 0.13-0.46 0.59 0.69 0.15 1.17-0.16 1.62-0.61zm-2.86 1.03-0.19-0.09-0.02 0.13 0.21-0.04zm-4.74 1.39c-1.38 0.5-3 0.23-4.2 1.31l-0.16 0.14 0.16 0.13c1.54-0.15 2.88-0.83 4.2-1.58zm6.44-2.39c-0.2 0.11-0.64 0.13-0.46 0.59 0.69 0.15 1.16-0.16 1.62-0.61-0.43-0.31-0.82-0.17-1.16 0.02zm-1.89 0.91-0.02 0.13 0.21-0.04-0.19-0.09zm-265.11-198.37c-2.36 1.75-4.53 3.39-7.12 4.23-0.75 0.24-1.48 0.68-2.5 0.49 0.15-3.21 1.6-5.77 3.94-7.8 4.73-4.11 10.22-6.71 16.41-7.76 1.45-0.25 2.92-0.36 4.38-0.52 0.6-0.07 1.17 0.04 1.47 0.64 0.36 0.72-0.02 1.33-0.54 1.72-0.98 0.74-2.01 1.41-3.07 2.01-2.41 1.36-4.86 2.67-7.39 4.05 0.37 1 1.16 1.46 1.79 2.02 5.41 4.72 11.58 8.22 18.08 11.18 14.24 6.47 29.05 11.31 44.19 15.17 11.71 2.99 23.52 5.58 35.5 7.23 11.92 1.64 23.91 2.34 35.94 2.16 10.88-0.16 21.75-0.63 32.41-2.99 25.08-5.53 48.16-15.45 68.31-31.63 3.52-2.82 6.7-6 9.49-9.55 1.72-2.19 1.64-2.47-1.05-3.51-1.22-0.47-2.46-0.88-3.7-1.3-0.64-0.22-1.32-0.49-1.31-1.26 0.01-0.7 0.6-1.13 1.19-1.45 0.87-0.48 1.83-0.7 2.8-0.82 4-0.52 7.82 0.06 11.39 2 3.03 1.65 5.72 3.78 8.32 6.04 1.46 1.27 2.07 2.86 1.48 4.92-1.98-0.96-3.86-1.9-5.77-2.8-1.7-0.8-3.43-1.55-5.25-2.03-1.33-0.35-1.81-0.07-2.03 1.28-0.22 1.37-0.34 2.76-0.45 4.14-0.55 7.17-1.07 14.34-1.6 21.51-1.39 18.82-2.9 37.63-5.94 56.27-2.79 17.12-6.75 33.98-13.19 50.12-6.73 16.86-18.05 29.79-34.19 38.31-7.15 3.78-14.86 5.88-22.83 7.05-6.97 1.02-13.99 1.41-21.03 1.06-18.61-0.94-35.44-7.05-50.68-17.67-9.99-6.96-18.64-15.41-26.85-24.33-15.35-16.68-28.15-35.22-39.85-54.57-10.99-18.19-20.96-36.96-31.3-55.51-0.72-1.28-1.44-2.56-2.14-3.86-2.46-4.58-5.29-8.99-7.31-14.24zm13.57 11.1c-0.15-0.22-0.32-0.41-0.54-0.09-0.02 0.02 0.2 0.21 0.31 0.31 0.08 0.7 0.6 1.15 0.97 1.67 2.11 3.01 4.13 6.09 5.9 9.32 4.96 9.03 9.94 18.04 14.77 27.14 6.14 11.56 12.8 22.81 20.21 33.6 3.29 4.78 6.53 9.6 9.78 14.41 0.71 1.05 1.33 2.16 2.01 3.28 0.54-0.52 0.35-1.03 0.41-1.48 1.06-7.44 3.87-13.98 9.71-18.98 4.53-3.88 9.75-6.14 15.67-6.96 6.5-0.89 12.04 1.69 15.28 7.4 1.63 2.86 2.75 5.92 3.5 9.12 0.91 3.91 1.16 7.91 1.53 11.89 0.67 7.17 5.47 10.77 12.1 9 3.55-0.95 6.51-2.78 7.29-6.78 0.3-1.53 0.25-3.08-0.08-4.63-0.53-2.48-1.08-4.95-1.52-7.44-1.1-6.2 0.76-9.85 6.53-12.41 6.67-2.97 13.22-2.66 19.39 1.39 5.89 3.86 9.72 9.35 12.16 15.88 3.11 8.33 3.5 16.89 2.25 25.6-0.26 1.78-0.55 3.55-0.82 5.33-0.12 0.8 0.21 1.24 1.05 1.28 0.9 0.04 1.8 0.04 2.69 0.17 12.81 1.86 23.56 7.49 31.95 17.44 0.37 0.44 0.75 0.86 1.13 1.29 0.52 0.6 1.09 0.67 1.7 0.16 0.37-0.32 0.72-0.66 1.07-1.01 10.98-10.77 19.13-23.38 24.25-37.88 5.03-14.24 7.51-29.08 9.75-43.93 1.51-10.01 2.72-20.06 3.64-30.15 0.83-9.11 1.82-18.2 2.71-27.3 0.11-1.16 0.02-2.34 0.02-3.5-0.54-0.03-0.72 0.27-0.93 0.49-6.27 6.7-13.69 11.87-21.62 16.38-5.12 2.91-10.43 5.44-15.71 8.05-2.07 1.02-2.13 1.17-1.57 3.42 1.82 7.21 3.3 14.49 4.42 21.83 0.6 3.96 0.98 7.96 0.91 11.96-0.05 3.13-0.6 3.62-3.68 4.11-11.6 1.88-23.26 2.01-34.95 0.99-1.87-0.16-3.71-0.56-5.48-1.23-1.13-0.42-1.67-1.15-1.71-2.39-0.18-5.73-1.31-11.35-2.15-17-0.38-2.58-0.93-5.14-1.4-7.71-0.14-0.75-0.26-1.61-1.29-1.35-2.79 0.7-5.67 0.69-8.49 1.17-1.49 0.25-1.56 0.38-1.31 1.97 0.86 5.4 1.77 10.79 2.58 16.2 0.44 2.9 0.79 5.83 1.06 8.75 0.23 2.52-0.07 2.76-2.47 3.29-1.46 0.33-2.92 0.29-4.39 0.3-10.22 0.09-20.43-0.22-30.63-0.95-4.56-0.33-9.14-0.39-13.64-1.33-2.27-0.48-2.49-0.71-2.68-3.04-0.09-1.06-0.12-2.12-0.24-3.18-0.89-7.7-2.4-15.32-3.18-23.04-0.2-1.97-0.26-1.94-2.21-2.22-2.83-0.4-5.67-0.74-8.47-1.29-14.46-2.83-28.59-6.83-42.46-11.77-10.02-3.57-19.86-7.53-29.29-12.48-1.92-0.98-3.71-2.3-5.79-3.07zm132.12 125.65c0.74 1.12 1.61 1.62 2.36 2.24 3.35 2.76 6.59 5.64 8.97 9.32 0.35 0.54 1.24 1.17 0.53 1.88-0.76 0.76-1.49 0.02-2.15-0.44-0.13-0.09-0.27-0.18-0.4-0.28-8.65-6.48-18.45-10.43-28.87-12.92-4.55-1.08-9.17-1.58-13.84-0.69-2.81 0.53-5.35 1.52-7.04 4-0.85 1.24-0.8 1.42 0.44 2.37 0.78 0.6 1.59 1.15 2.36 1.75 14.88 11.54 31.9 16.82 50.56 17.34 7.95 0.22 15.83-0.46 23.64-1.93 5.81-1.09 11.41-2.83 16.58-5.77 1.78-1.01 1.85-1.33 0.81-3.05-1.16-1.92-2.82-3.38-4.6-4.7-5.58-4.13-11.87-6.82-18.36-9.12-6.55-2.32-13.26-3.46-20.22-2.84-3.67 0.34-7.21 1.17-10.77 2.84zm-34.82-95.63c0.27 1.81 0.53 3.25 0.7 4.71 0.63 5.35 1.28 10.69 1.83 16.05 0.13 1.28 0.5 1.85 1.86 1.98 10.65 0.96 21.3 2.08 32.01 1.93 0.8-0.01 1.63 0.21 2.42-0.27-0.94-6.7-2.16-13.36-3.61-19.97-0.44-1.99-0.45-1.97-2.48-2.03-8.65-0.26-17.3-0.72-25.9-1.73-2.17-0.27-4.35-0.44-6.83-0.67zm91.25 21.58c1.35 0 2.58-0.03 3.8 0.01 1.15 0.04 1.46-0.57 1.23-1.54-1.54-6.35-2.09-12.88-3.64-19.23-0.58-2.38-1.14-4.76-1.8-7.12-0.45-1.61-0.54-1.6-2.25-1.07-0.23 0.07-0.48 0.12-0.71 0.2-6.61 2.38-13.42 4.1-20.26 5.66-3.63 0.83-3.59 0.79-2.85 4.42 1.02 5.03 2.27 10.03 2.72 15.17 0.34 3.85 0.34 3.8 4.28 3.99 6.56 0.33 13.08 0.08 19.48-0.49zm66.44-60.14c1.78-0.33 3.43-0.19 5.03-0.55 4.8-1.07 8.65-3.54 11.05-7.85 4.68-8.42 5.16-17.06 0.87-25.81-0.47-0.95-0.98-1.91-1.66-2.71-7.27-8.53-16.06-14.03-27.7-13.92-1.5 0.01-2.34 0.42-2.99 1.84-1.8 3.94-3.96 7.7-6.37 11.31-3.29 4.94-7.29 9.23-11.84 13.02-1.48 1.23-1.48 1.38-0.55 3.05 1 1.81 2.44 3.28 3.93 4.68 0.75 0.71 1.49 1.38 0.73 2.49-0.6 0.88-1.53 1.05-2.83 0.36-2.25-1.19-4.29-2.69-6.01-4.59-1.17-1.29-1.18-1.27-2.71-0.26-13.56 8.93-27.8 16.53-43 22.27-10.12 3.82-20.54 6.52-31.23 8.1-1.69 0.25-3.42 0.25-5.13 0.35-0.52 0.03-1-0.08-1.17-0.65-0.19-0.62 0.02-1.18 0.57-1.48 0.71-0.38 1.48-0.68 2.24-0.96 10.73-3.95 21.48-7.83 32.03-12.25 19.09-7.98 36.52-18.6 51.96-32.42 7.37-6.6 12.67-14.48 14.89-24.25 0.67-2.93 0.62-5.85-0.26-8.72-2.05-6.68-8.41-10.34-15.65-9.05-5.67 1.02-10.68 3.5-15.27 6.9-5.55 4.12-10.29 9.08-14.87 14.21-6.59 7.38-13.04 14.88-20.28 21.66-8.92 8.36-18.49 15.85-28.91 22.25-4.74 2.91-9.53 5.72-14.3 8.57-2.15 1.28-4.45 2.05-6.98 1.97-0.48-0.02-0.99 0-1.53-0.45 5-4.67 11.43-7.27 16.84-11.78-11.57-6.6-21.69-14.6-29.27-25.63-1.17 0.88-1.23 2.16-1.53 3.27-2.42 9.07-6.98 16.88-13.83 23.3-8.65 8.1-18.77 13.27-30.57 14.9-8.98 1.24-17.76 0.02-26.39-2.53-6.86-2.03-13.31-4.96-19.37-8.74-1.5-0.94-1.53-0.95-2.56 0.34-0.44 0.55-0.9 0.96-1.65 0.76s-0.95-0.82-1.03-1.5c-0.19-1.59 0.18-3.07 0.8-4.53 0.74-1.73 1.59-3.43 2.09-5.23 2.54-9.13-4.8-19.85-14.43-21.18-23.25-3.23-40.02 11.69-46.38 26.78-1.6 3.78-2.95 7.6-2.58 11.84 0.76 8.73 7.64 15.85 16.38 16.94 4.57 0.57 9.14 0.38 13.71 0.45 0.41 0.01 0.82-0.03 1.23-0.03 0.64 0 1.13 0.25 1.3 0.89 0.2 0.7 0.01 1.32-0.65 1.68-0.57 0.31-1.17 0.58-1.79 0.78-4.27 1.44-8.6 2.63-13.13 2.84-6.43 0.3-12.33-1.32-17.39-5.4-4.46-3.6-6.46-8.51-6.92-14.11-0.61-7.35 1.29-14.1 5.03-20.36 5.21-8.72 12.11-15.79 20.79-21.1 5.02-3.06 10.44-4.97 16.24-5.7 0.29-0.79-0.22-1.33-0.48-1.89-6.02-13.07-8.19-26.8-7.09-41.09 0.57-7.46 2.16-14.7 5.34-21.52 4.08-8.74 10.18-15.73 18.27-20.98 0.48-0.31 0.97-0.61 1.45-0.91 1.94-1.21 1.94-1.21 0.86-3.14-1.6-2.85-3.35-5.62-4.68-8.61-0.46-1.04-0.92-2.11-1.16-3.21-0.41-1.87 0.32-2.95 2.16-3.51 2.85-0.87 3.77-0.5 5.1 2.12 1.63 3.2 3.22 6.43 4.88 9.61 0.88 1.68 1.3 1.94 2.89 1.39 4.82-1.65 9.79-2.54 14.81-3.27 0.15-0.02 0.28-0.15 0.6-0.32-0.65-2.62-1.41-5.27-1.81-8-0.24-1.61-0.61-3.21-0.76-4.84-0.15-1.52 0.34-2.07 1.78-2.45 0.24-0.06 0.48-0.08 0.73-0.12 3.69-0.54 4.17-0.23 5.1 3.42 0.89 3.48 1.77 6.96 2.59 10.46 0.21 0.88 0.45 1.4 1.51 1.5 5.55 0.5 10.96 1.73 16.24 3.53 0.13 0.05 0.31-0.03 0.53-0.06 0.22-1.37 0.08-2.75 0.08-4.14 0-3.11-0.02-6.21 0.05-9.32 0.05-2.04 0.77-2.77 2.57-2.86 2.37-0.12 3.84 0.75 4.17 2.53 0.13 0.72 0.1 1.47 0.12 2.2 0.07 4.41 0.26 8.83-0.06 13.24-0.08 1.16 0.33 1.76 1.34 2.29 12.57 6.65 23.03 15.74 31.31 27.32 0.09 0.12 0.25 0.19 0.41 0.31 0.57-0.28 0.59-0.88 0.76-1.38 3.95-11.44 10.4-21.05 20.56-27.92 1.09-0.74 1.3-1.45 0.79-2.65-1.58-3.68-3.19-7.34-5.23-10.8-1.42-2.41-1.26-2.99 1.13-4.5 3.48-2.2 5.48-1.68 7.28 1.97 1.26 2.57 2.22 5.27 3.07 8 1.04 3.35 1.05 3.33 4.25 2.09 3.13-1.21 6.33-2.15 9.68-2.56 1.95-0.24 2-0.35 1.59-2.33-0.7-3.36-1.44-6.71-2.11-10.07-0.21-1.04-0.34-2.1-0.36-3.16-0.05-2.09 0.63-2.92 2.67-3.5 0.16-0.04 0.32-0.05 0.48-0.09 3.84-0.92 4.85-0.32 5.72 3.47 1.01 4.37 2.01 8.75 3.03 13.12 0.48 2.09 0.49 2.13 2.67 2.34 3.91 0.38 7.77 1.02 11.53 2.19 1.25 0.39 1.76 0.6 2.07-1.33 0.52-3.22 1.12-6.44 1.9-9.61 0.95-3.85 1.76-4.23 5.54-3.06 4 1.24 4.14 1.52 2.99 5.52-0.91 3.14-1.79 6.28-2.68 9.42-0.53 1.89-0.54 1.93 1.15 2.85 4.66 2.57 9.11 5.47 13.23 8.84 14.21 11.64 23.77 26.34 28.88 43.96 0.11 0.39 0.26 0.78 0.35 1.17 0.16 0.71 0.58 0.93 1.26 0.74 0.86-0.24 1.73-0.49 2.59-0.73 3.6-1.01 7.27-1.21 10.93-0.59 10.84 1.82 17.57 11.62 16.43 22.61-0.17 1.62-0.26 3.25-0.62 4.86-0.33 1.49-0.16 1.62 1.46 1.6 13.05-0.12 23.19 5.79 30.85 15.83 6.09 7.99 7.43 17.35 4.83 27.03-1.79 6.67-5.89 11.81-12.11 15.02-3.52 1.82-7.15 2.25-10.76 0.1-0.93-0.54-0.93-0.54-1.65-2.19zm-226.74-135.19c-1.61-0.05-4.29 0.18-6.97 0.58-9.79 1.44-18.47 5.18-25.69 12.13-9.64 9.28-14.63 20.72-15.75 33.88-1.17 13.72 1.35 26.82 7.11 39.33 0.64 1.39 1.4 2.01 2.92 1.94 1.55-0.07 3.11 0.03 4.66 0.1 2.95 0.14 5.84 0.64 8.67 1.48 5.3 1.57 9.19 4.81 11.67 9.76 2.93 5.86 3.05 11.77 0.38 17.72-0.48 1.08-0.64 1.75 0.56 2.56 12.11 8.12 25.29 12.46 39.99 11.21 13.27-1.12 24.22-6.92 32.73-17.15 8.25-9.92 11.41-21.71 11.78-34.33 0.23-7.88-0.87-15.66-3.11-23.22-6.99-23.59-21.99-40.24-44.19-50.54-7.48-3.47-15.35-5.45-24.76-5.45zm157.16 71.5c6.14-6.46 12.79-11.71 20.03-16.21 0.93-0.58 1.17-1.27 0.94-2.25-0.4-1.66-0.7-3.36-1.22-4.99-4.44-13.94-12-25.83-23.18-35.4-10.31-8.82-21.82-14.78-35.52-16.2-12.53-1.29-23.85 1.48-33.8 9.32-9 7.09-14.07 16.55-16.73 27.52-0.48 1.96-0.27 3.54 0.7 5.33 5.97 10.98 9.52 22.7 10.18 35.23 0.21 3.92 0.1 7.85-0.45 11.75-0.19 1.34-0.04 2.53 0.78 3.71 7.81 11.24 17.74 20 30.02 26.1 1.39 0.69 2.54 0.68 3.87-0.2 3.49-2.3 6.77-4.86 9.93-7.58 0.4-0.35 1.02-0.58 0.94-1.32-0.26-0.18-0.52-0.37-0.8-0.54-18.49-10.88-27.32-33.7-24.65-50.71 1.01-6.47 3.2-12.51 7.36-17.66 4.97-6.15 11.55-8.5 19.22-7.14 11.59 2.06 20.2 8.39 25.62 18.92 2.14 4.16 3.55 8.59 4.7 13.11 0.75 2.91 1.32 5.87 2.06 9.21zm-52.63-9.64c-0.06 6.21 1.17 12.18 3.62 17.87 3.98 9.22 10.02 16.57 19.22 21.08 1.43 0.7 2.44 0.81 3.68-0.37 2.66-2.53 5.53-4.84 8.2-7.37 4.46-4.22 8.48-8.84 11.92-13.95 0.6-0.9 1.06-1.76 0.86-2.94-0.51-3.06-0.8-6.15-1.35-9.2-1.39-7.67-4.2-14.75-9.29-20.77-3.68-4.35-8.21-7.4-13.69-9.07-3.71-1.13-7.41-1.19-11.07 0.08-5.77 2.01-8.88 6.44-10.48 12.06-1.16 4.09-1.66 8.31-1.62 12.58zm27.12 261.26c-14.62-0.06-27.04-2.53-39.12-6.93-5.58-2.03-10.66-4.94-15.48-8.35-3.47-2.46-6.78-5.12-10.07-7.82-0.25-0.21-0.52-0.4-0.76-0.62-0.47-0.45-0.59-0.99-0.26-1.55 0.34-0.58 0.9-0.67 1.49-0.45 1.76 0.66 3.54 1.26 5.25 2.03 7.54 3.38 15.26 6.22 23.19 8.53 7.87 2.3 15.9 3.62 24.06 4.3 5.87 0.5 11.73 0.66 17.62 0.11 9.75-0.92 19.08-3.52 28.26-6.78 7.89-2.8 15.34-6.46 22.46-10.85 0.28-0.17 0.53-0.38 0.81-0.55 0.45-0.27 0.93-0.35 1.35 0.03s0.38 0.84 0.15 1.34c-0.76 1.65-1.79 3.12-3.05 4.42-8.52 8.77-18.48 15.26-30.15 19.06-8.92 2.9-18.12 4.04-25.75 4.08zm57.13-27.34c-0.65 0.33-1.33 0.62-1.96 0.99-7.46 4.47-15.35 7.98-23.58 10.77-9 3.05-18.17 5.38-27.67 6.01-9.91 0.66-19.74-0.34-29.48-2.17-11.21-2.11-21.89-5.88-32.32-10.45-2.14-0.94-4.24-2-7.02-2.55 2.27 2.26 4.51 3.86 6.67 5.54 5.56 4.33 11.37 8.27 18.01 10.8 17.02 6.47 34.52 8.98 52.65 6.39 16.59-2.37 30.75-9.52 42.48-21.48 1.02-1.04 2.09-2.08 2.52-3.55 0.09-0.12 0.28-0.3 0.25-0.35-0.19-0.33-0.38-0.12-0.55 0.05zm-280.31-278.73c0 2.59-0.27 4.93-1.18 7.17-2.05 5.06-6.68 7.74-12.01 6.58-8.36-1.82-15.68-5.53-21.1-12.43-4.96-6.31-8.75-13.2-10.29-21.16-0.5-2.6-0.38-5.2 0.49-7.74 2.52-7.3 10.7-10.8 18.32-7.75 4.14 1.66 7.77 4.17 11.1 7.1 7.28 6.4 11.96 14.37 14.19 23.81 0.38 1.53 0.36 3.08 0.48 4.42zm-0.98 0.42c-0.05-0.98-0.08-1.96-0.17-2.93-0.05-0.57-0.17-1.13-0.3-1.68-2.23-9.62-7.1-17.66-14.67-24-3.02-2.53-6.27-4.72-9.94-6.21-6.95-2.82-16.54 0.14-17.72 10.08-0.28 2.39 0.11 4.73 0.78 7.02 1.98 6.84 5.35 12.93 9.84 18.45 5.2 6.39 12.11 9.81 19.94 11.57 5.3 1.19 9.53-1.36 11.33-6.51 0.66-1.88 0.9-3.81 0.91-5.79zm111.85 268.61c0.14 5.73-1.31 10.99-4.69 15.67-4.15 5.74-10.46 7.09-16.63 3.58-3.88-2.2-6.83-5.32-8.77-9.31-3.3-6.78-4.5-13.94-3.46-21.42 0.53-3.84 2.3-7.12 5.03-9.87 4.25-4.27 9.68-5.17 15.04-2.42 6.99 3.58 11.2 9.31 12.84 16.97 0.49 2.24 0.6 4.51 0.64 6.8zm-1.01 0.16c0.05-2.22-0.12-4.5-0.6-6.75-1.59-7.51-5.73-13.11-12.67-16.47-4.84-2.35-9.7-1.44-13.51 2.35-2.63 2.62-4.32 5.77-4.78 9.45-0.89 7.06 0.1 13.86 3.14 20.31 1.82 3.86 4.55 6.96 8.27 9.13 6.16 3.6 12.21 2.18 16.17-3.79 2.84-4.28 4.11-9.02 3.98-14.23zm245.14-43.48c-0.2 8.66-3.31 15.23-10.68 19.77-8.98 5.52-19.84-0.37-21.09-10.16-1.25-9.76 2.09-17.74 9.08-24.21 6.37-5.89 16.63-3.48 20.4 4.48 1.24 2.62 2.31 7.52 2.29 10.12zm-31.09 5.55c0.14 2.33 0.32 4.2 0.78 6.03 1.35 5.32 6.55 9.36 12.05 9.38 4.1 0.02 7.34-2 10.36-4.43 8.32-6.68 8.5-20.63 3.63-28.02-3.8-5.78-12.08-7.24-17.22-2.86-6.16 5.28-9.62 12.05-9.6 19.9zm-248.96-5.97c0.01 3.3-0.56 6.49-1.94 9.52-0.65 1.42-1.46 2.74-2.52 3.89-3.13 3.42-7.44 4.22-11.57 2.1-3.08-1.58-5.44-3.98-6.87-7.09-3.19-6.95-3.21-13.93 0.6-20.68 2.05-3.64 5.12-5.87 9.52-5.8 1.53 0.02 2.87 0.53 4.15 1.3 5.58 3.36 8.17 8.46 8.62 14.81 0.05 0.64 0.01 1.29 0.01 1.95zm-0.97 0.15c0-0.57 0.03-1.14 0-1.71-0.39-6.16-2.75-11.18-8.26-14.41-1.15-0.68-2.34-1.09-3.69-1.1-3.95-0.03-6.6 2.09-8.51 5.26-2.54 4.22-3.18 8.86-2.48 13.68 0.63 4.33 2.34 8.11 5.73 11.03 5.26 4.53 11.37 3.45 14.75-2.64 1.75-3.15 2.39-6.56 2.46-10.11zm-64.93-174.01c0.04 5.36-3.68 8.49-8.7 7.53-2.68-0.51-5.17-1.55-7.29-3.29-6.28-5.16-9.9-11.59-9.48-19.95 0.22-4.45 3.87-8.23 7.85-8.12 1.01 0.03 1.93 0.3 2.82 0.72 1.7 0.82 3.32 1.78 4.69 3.08 5.5 5.22 8.95 11.55 10.07 19.09 0.05 0.41 0.03 0.83 0.04 0.94zm-0.96-0.57c-1.32-8.21-5.05-16.15-13.5-21.24-0.14-0.08-0.29-0.16-0.43-0.23-3.05-1.49-5.75-0.9-7.84 1.77-1.13 1.45-1.7 3.09-1.78 4.98-0.31 7.15 2.69 12.82 7.7 17.6 2.42 2.31 5.33 3.77 8.66 4.28 4.1 0.65 7.14-1.91 7.19-7.16zm288.54-66.86c-0.03 2.29-0.26 4.24-0.97 6.08-1.52 3.93-5.18 5.34-8.98 3.51-1.26-0.61-2.39-1.43-3.29-2.5-4.12-4.91-5.66-10.56-4.75-16.88 0.17-1.21 0.64-2.36 1.21-3.45 2.27-4.32 6.63-5.16 10.1-1.74 3.2 3.15 5.36 6.97 6.27 11.42 0.27 1.27 0.5 2.56 0.41 3.56zm-17.27-7.12c0.05 5.16 1.42 9.11 4 12.64 1.19 1.62 2.7 2.84 4.61 3.52 2.47 0.88 4.78 0.08 6.18-2.12 0.57-0.91 0.9-1.92 1.1-2.97 0.48-2.43 0.52-4.87 0.02-7.31-0.87-4.21-2.88-7.82-5.89-10.83-3.07-3.06-6.92-2.29-8.78 1.64-0.94 1.96-1.29 4.04-1.24 5.43zm75.24 298.97c0.09 3.44-0.72 6.46-2.57 9.19-1.39 2.04-3.29 3.37-5.68 4.01-2.93 0.78-5.09 0.04-6.87-2.41-1.27-1.75-2.1-3.69-2.21-5.88-0.27-5.18 1.57-9.44 5.7-12.61 1.82-1.39 3.91-2.02 6.22-1.55 2.56 0.52 4.22 2.04 4.93 4.55 0.44 1.59 0.62 3.22 0.48 4.7zm-0.96-0.23c0.11-1.28-0.08-2.73-0.48-4.15-0.66-2.38-2.25-3.7-4.71-3.96-1.79-0.19-3.37 0.36-4.83 1.37-4 2.76-6.35 8.68-5.1 13.4 0.67 2.55 1.72 5.2 4.6 5.87 3.13 0.73 5.71-0.73 7.73-3.16 0.31-0.37 0.57-0.79 0.83-1.21 1.5-2.44 1.99-5.14 1.96-8.16zm-317.61-183.73c-0.07 0.25-0.15 0.74-0.32 1.18-0.87 2.22-4.72 4.6-7.1 4.43-1.54-0.11-2.64-0.89-3.21-2.26-0.52-1.25-0.09-2.38 0.83-3.34 1.47-1.54 2.97-3.05 5.09-3.67 2.48-0.72 4.76 0.96 4.71 3.66zm-6.98 4.62c1.99-0.11 3.49-1.23 4.86-2.51 1.32-1.23 1.5-2.74 0.65-3.93-0.81-1.12-2.08-1.32-3.72-0.62-1.54 0.66-2.66 1.83-3.8 2.99-0.74 0.76-1.09 1.63-0.61 2.65 0.51 1.09 1.47 1.45 2.62 1.42zm19.25 6.49c-1.35-0.07-2.68-0.4-3.46-1.76-0.81-1.4-0.32-2.67 0.5-3.87 1.36-2 3.78-3.01 5.92-2.55 1.41 0.3 2.3 1.13 2.76 2.47 0.46 1.33-0.05 2.44-0.97 3.31-1.3 1.24-2.75 2.31-4.75 2.4zm2.18-7.28c-2.29 0.05-3.8 1.05-4.71 2.87-0.79 1.59-0.08 2.9 1.68 3.28 1.8 0.39 3.17-0.48 4.46-1.53 0.93-0.76 1.63-1.63 1.1-2.95-0.51-1.24-1.52-1.64-2.53-1.67zm257.23-14.65c-0.49 0-0.57 0.01-0.65 0-2.41-0.19-4.6-2.45-4.32-4.45 0.29-2.08 2.55-3.49 5.06-3.15 0.73 0.1 1.41 0.37 2.05 0.74 1.41 0.81 2.1 2.03 1.97 3.64-0.12 1.6-1.2 2.42-2.61 2.87-0.61 0.18-1.25 0.29-1.5 0.35zm-0.48-6.67c-1.98-0.04-3.54 1.11-3.54 2.6 0 1.46 1.8 3.02 3.57 3.11 1.85 0.09 3.53-1.09 3.6-2.54 0.09-1.69-1.57-3.13-3.63-3.17zm-249.39 13.72c-3.28-0.01-4.15-0.47-4.64-2.18-0.46-1.64 0.34-3.18 2.28-4.42 1.56-1 3.18-1.23 4.86-0.36 1.52 0.79 2.44 2.34 2.25 3.75-0.19 1.39-1.52 2.76-3.11 3.09-0.71 0.15-1.46 0.11-1.64 0.12zm0.14-0.99c0.12-0.01 0.79 0.03 1.4-0.14 1.14-0.33 2.12-0.98 2.22-2.29 0.1-1.28-0.65-2.13-1.74-2.69-1.6-0.83-3.68-0.29-5.04 1.29-0.69 0.8-0.94 1.68-0.56 2.7 0.39 1.04 1.28 1.13 2.2 1.13 0.34 0.01 0.66 0 1.52 0zm253.61-0.92c0.86 0.09 1.88 0.38 2.78 0.97 1.32 0.87 2.67 1.88 2.37 3.67-0.3 1.74-1.63 2.82-3.2 3.43-1.66 0.65-3.03-0.08-4.15-1.31-0.79-0.86-1.3-1.87-1.42-3.05-0.27-2.29 1.12-3.78 3.62-3.71zm-2.67 3.18c-0.03 1.31 0.73 2.75 1.85 3.54 1.47 1.03 3.19 0.61 4.44-1.07 1-1.35 0.7-2.48-1-3.64-0.89-0.61-1.88-1.01-2.96-1.03-1.5-0.04-2.3 0.76-2.33 2.2zm23.03-1.56c-0.13 1.58-0.92 2.76-2.28 3.54-1.32 0.75-2.64 0.73-3.91-0.15-1.51-1.05-2.21-2.57-2.54-4.3-0.15-0.78 0.16-1.42 0.77-1.94 1.87-1.57 6.19-0.87 7.46 1.24 0.29 0.47 0.52 1 0.5 1.61zm-4.58-2.72c-2.94-0.13-3.75 1.11-2.62 3.46 0.29 0.59 0.67 1.12 1.17 1.54 0.95 0.79 1.95 1.1 3.14 0.47 1.14-0.61 2.02-1.85 1.89-2.89-0.16-1.31-1.08-1.93-2.25-2.26-0.54-0.15-1.1-0.26-1.33-0.32zm-438.44-21.27c-0.05-6.61 0.84-11.32 2.94-15.74 3.37-7.07 8.84-11.41 16.76-12.28 3.94-0.43 7.61 0.63 11.04 2.53 4.04 2.24 7.61 5.09 10.51 8.69 6.72 8.34 10.34 17.91 10.66 28.61 0.21 6.99-1.83 13.38-6.15 18.95-6.15 7.94-15.01 9.99-23.99 5.45-7.45-3.77-13.06-9.45-16.77-16.93-3.29-6.59-4.83-13.64-5-19.28zm50.94 12c-0.28-9.51-3.29-18.43-9.07-26.4-3.11-4.3-7.01-7.77-11.7-10.26-7.03-3.73-13.83-3.26-20.23 1.53-4.41 3.3-6.88 7.91-7.95 13.14-2.68 13.07 0.3 24.98 8.25 35.59 3.59 4.79 8.29 8.37 13.89 10.56 7.06 2.76 13.48 1.63 18.91-3.85 5.48-5.52 7.75-12.33 7.9-20.31zm65.9 230.29c0.26 2.73-0.16 5.37-1.05 7.95-2.2 6.35-8.87 7.88-13.61 3.08-3.89-3.94-5.69-8.85-6.54-14.21-0.66-4.15-0.27-8.15 1.59-11.94 1.84-3.74 5.37-5.49 9.3-4.77 2.3 0.43 3.98 1.8 5.37 3.6 3.1 4 4.6 8.6 4.94 13.6 0.05 0.89 0 1.79 0 2.69zm-0.96-0.07c0.1-2.09-0.1-4.2-0.55-6.28-0.87-3.97-2.42-7.6-5.32-10.55-1.6-1.62-3.51-2.27-5.76-2.1-3.23 0.25-5.2 2.12-6.43 4.92-1.53 3.46-1.75 7.09-1.18 10.79 0.81 5.27 2.58 10.11 6.55 13.89 4.06 3.87 9.64 2.56 11.58-2.7 0.93-2.55 1.34-5.2 1.11-7.97zm111.54 56.82h-29.17c-3.28 0-3.48 0.3-3.06 3.49 0.42 3.23 0.74 6.47 1.04 9.71 0.26 2.82 0.79 3.35 3.61 3.41 3.84 0.08 7.67-0.31 11.49-0.34 15.28-0.12 30.56-0.11 45.84-0.15 0.74 0 1.48 0.03 2.2-0.05 1.12-0.11 1.82-0.66 1.74-1.91-0.08-1.22-0.12-2.45-0.25-3.66-0.23-2.27-0.59-4.52-0.74-6.79-0.21-3.19-0.65-3.7-3.79-3.7-9.64-0.01-19.28 0-28.93 0 0.02 0 0.02-0.01 0.02-0.01zm-104.21 48.01c0.66 4.01 1.31 8.03 2 12.04 0.35 2 1.1 2.27 2.83 1.11 0.41-0.27 0.8-0.56 1.19-0.86 8.93-6.85 17.86-13.71 26.79-20.56 2.98-2.28 5.95-4.58 8.97-6.8 1.48-1.09 2.07-2.24 1.49-4.17-0.63-2.09-0.8-4.31-1.19-6.48-0.32-1.76-0.64-3.52-1.03-5.27-0.47-2.09-1.1-2.33-2.79-1.15-0.07 0.05-0.12 0.11-0.19 0.16-7.59 5.52-15.21 10.98-22.75 16.57-4.58 3.4-9.03 6.99-13.51 10.53-1.08 0.85-2.31 1.69-1.94 3.15 0.06 0.75 0.05 1.25 0.13 1.73zm140.83-348.36c0.02 4.28-0.36 7.77-1.22 11.19-1.79 7.15-6.02 12.61-11.97 16.78-5.09 3.56-10.76 3.97-16.67 2.76-4.38-0.9-8.42-2.63-12.04-5.25-11.89-8.6-19.14-20.09-21.53-34.63-1.23-7.52-1.29-14.96 1.07-22.29 1.11-3.45 2.67-6.67 5-9.48 6.88-8.3 18.45-11.09 28.19-6.41 15.76 7.57 25.17 20.09 28.19 37.35 0.62 3.55 0.94 7.13 0.98 9.98zm-58.64-19.54c0.2 13.81 4.54 24.66 12.65 34.01 4.36 5.04 9.59 8.85 16.07 10.74 7.48 2.18 13.71 0.1 18.4-6.12 1.78-2.37 3.15-4.97 4.09-7.77 2.79-8.35 2.57-16.74-0.02-25.04-4.17-13.35-12.28-23.28-25.58-28.47-7.33-2.86-13.85-1.17-18.94 4.82-4.71 5.53-6.81 11.97-6.67 17.83zm121.35 24.17c2.29 2.28 4.97 3.96 8.1 4.88 3.37 0.99 5.9 0.16 7.93-2.69 1.44-2.03 2.39-4.27 2.73-6.75 0.48-3.52 0.03-7.01-0.58-10.47-1.17-6.69-4.03-12.55-8.87-17.39-3.1-3.1-6.71-3.89-10.78-2.3-3.62 1.41-5.81 4.12-6.78 7.83-0.52 1.99-0.66 4.03-0.61 5.27-0.08 9.04 3.11 15.88 8.86 21.62zm-87.04-27.8c-1.69-2.13-3.76-3.87-6.14-5.19-5.08-2.83-10.37-1.17-12.99 4.04-0.96 1.91-1.63 3.95-1.71 6.09-0.31 8.65 1.71 16.68 6.66 23.85 2.17 3.14 4.97 5.63 8.45 7.27 5.11 2.4 9.96 0.79 12.73-4.13 1.51-2.67 1.8-5.55 1.72-8.53-0.09-8.85-3.28-16.55-8.72-23.4z"/>
</svg>
