<svg id="Layer_1" data-name="Layer 1" xmlns="http://www.w3.org/2000/svg" xmlns:xlink="http://www.w3.org/1999/xlink" viewBox="0 0 1000 1000"><defs><style>.cls-1{fill:#2a3484;}.cls-2,.cls-3,.cls-4{opacity:0.64;}.cls-3{fill:url(#linear-gradient);}.cls-4{fill:url(#linear-gradient-3);}</style><linearGradient id="linear-gradient" x1="293.06" y1="282.45" x2="640.92" y2="648.15" gradientUnits="userSpaceOnUse"><stop offset="0" stop-color="#0c1ce3"/><stop offset="1" stop-color="#0ed1e1"/></linearGradient><linearGradient id="linear-gradient-3" x1="293.06" y1="282.45" x2="640.92" y2="648.15" gradientTransform="translate(500 -207.11) rotate(45)" xlink:href="#linear-gradient"/></defs><title>COMITlogo</title><path class="cls-1" d="M245.37,877.44c-241.24-210-241.24-544.84,0-754.88l52.08,36.8c-105.08,105-158.08,218.12-158.08,341.09s53,236.07,158.08,341.08Z"/><path class="cls-1" d="M754.64,122.56c241.23,210,241.23,544.84,0,754.88l-52.09-35.91c105.08-105,158.08-218.11,158.08-341.08s-53-236.07-158.08-341.09Z"/><g class="cls-2"><ellipse class="cls-3" cx="500" cy="500" rx="264.43" ry="113.88"/></g><g class="cls-2"><ellipse class="cls-3" cx="500" cy="500" rx="113.88" ry="264.43"/></g><g class="cls-2"><ellipse class="cls-4" cx="500" cy="500" rx="113.88" ry="264.43" transform="translate(-207.11 500) rotate(-45)"/></g><g class="cls-2"><ellipse class="cls-4" cx="500" cy="500" rx="264.43" ry="113.88" transform="translate(-207.11 500) rotate(-45)"/></g></svg>