<?xml version="1.0" encoding="UTF-8"?>
<svg width="74.204" height="74.204" clip-rule="evenodd" fill-rule="evenodd" stroke-linejoin="round" stroke-miterlimit="1.4142" version="1.1" viewBox="0 0 74.204 74.204" xmlns="http://www.w3.org/2000/svg" xmlns:cc="http://creativecommons.org/ns#" xmlns:dc="http://purl.org/dc/elements/1.1/" xmlns:rdf="http://www.w3.org/1999/02/22-rdf-syntax-ns#">
 <metadata>
  <rdf:RDF>
   <cc:Work rdf:about="">
    <dc:format>image/svg+xml</dc:format>
    <dc:type rdf:resource="http://purl.org/dc/dcmitype/StillImage"/>
    <dc:title/>
   </cc:Work>
  </rdf:RDF>
 </metadata>
 <g transform="scale(3.7232)" fill="#142533" fill-rule="nonzero">
  <path d="m16.7 0h-9.11v12.29h12.3v-9.11c0-1.745-1.436-3.18-3.18-3.18h-0.01z"/>
  <path d="m4.75 0h-1.57c-1.744 0-3.18 1.436-3.18 3.18v1.57h4.75z"/>
  <path d="m0 7.59h4.75v4.75h-4.75z"/>
  <path d="m15.18 19.89h1.57c1.745 0 3.18-1.436 3.18-3.18v-0.01-1.52h-4.75z"/>
  <path d="m7.59 15.18h4.75v4.75h-4.75z"/>
  <path d="m0 15.18v1.57c0 1.744 1.436 3.18 3.18 3.18h1.57v-4.75z"/>
 </g>
</svg>
